<svg id="Layer_1" enable-background="new 0 0 496 496" height="512" viewBox="0 0 496 496" width="512" xmlns="http://www.w3.org/2000/svg"><path d="m328.02 63.999c-33.856 0-64.758 16.245-84.1 42.79-46.021-13.234-91.92 21.387-91.92 69.21-28.21 0-51.55 20.86-55.43 48h-40.57c-30.93 0-56-25.07-56-56s25.07-56 56-56c0-47.908 45.995-82.416 91.92-69.21 47.793-65.595 148.96-53.522 180.1 21.21z" fill="#5989b3"/><path d="m424 287.999h-272c-30.93 0-56-25.07-56-56s25.07-56 56-56c0-47.879 45.957-82.42 91.92-69.21 52.411-71.933 165.158-48.806 185.34 37.399 37.311 2.69 66.74 33.82 66.74 71.811 0 39.76-32.24 72-72 72z" fill="#add9ff"/><path d="m313.1 38.89c-46.079-37.029-114.105-28.24-149.18 19.899-46.025-13.228-91.92 21.387-91.92 69.21-45.06 0-70.917 50.225-46.779 86.779-15.202-10.009-25.221-27.218-25.221-46.779 0-30.93 25.07-56 56-56 0-47.879 45.957-82.42 91.92-69.21 40.37-55.407 122.24-57.318 165.18-3.899z" fill="#436786"/><path d="m409.1 102.89c-46.079-37.029-114.105-28.24-149.18 19.899-46.025-13.228-91.92 21.386-91.92 69.21-45.06 0-70.917 50.225-46.779 86.779-15.201-10.009-25.221-27.218-25.221-46.779 0-30.93 25.07-56 56-56 0-47.879 45.957-82.42 91.92-69.21 40.37-55.407 122.24-57.318 165.18-3.899z" fill="#d6ecff"/><circle cx="136" cy="255.999" fill="#d6ecff" r="8"/><circle cx="124" cy="243.999" fill="#d6ecff" r="4"/><circle cx="40" cy="191.999" fill="#436786" r="8"/><circle cx="28" cy="179.999" fill="#436786" r="4"/><g fill="#add9ff"><circle cx="96" cy="463.999" r="32"/><circle cx="352" cy="463.999" r="32"/><circle cx="160" cy="351.999" r="32"/><circle cx="416" cy="351.999" r="32"/><circle cx="224" cy="463.999" r="32"/><circle cx="288" cy="351.999" r="32"/></g></svg>