<svg id="Layer_1" enable-background="new 0 0 504 504" height="512" viewBox="0 0 504 504" width="512" xmlns="http://www.w3.org/2000/svg"><g fill="#ffdf81"><path d="m128 48c-4.419 0-8-3.582-8-8v-32c0-4.418 3.581-8 8-8 4.418 0 8 3.582 8 8v32c0 4.418-3.582 8-8 8z"/><path d="m40 136h-32c-4.419 0-8-3.581-8-8s3.581-8 8-8h32c4.418 0 8 3.581 8 8s-3.582 8-8 8z"/><path d="m65.78 73.78c-2.047 0-4.095-.781-5.657-2.343l-25.78-25.78c-3.125-3.124-3.125-8.189 0-11.313 3.124-3.124 8.189-3.124 11.313 0l25.78 25.78c5.055 5.053 1.407 13.656-5.656 13.656z"/><path d="m190.22 73.78c-7.062 0-10.712-8.602-5.657-13.657l25.78-25.78c3.124-3.124 8.189-3.124 11.313 0 3.125 3.124 3.125 8.189 0 11.313l-25.78 25.78c-1.561 1.562-3.608 2.344-5.656 2.344z"/><path d="m40 224c-7.062 0-10.712-8.603-5.657-13.657l25.78-25.78c3.124-3.124 8.189-3.124 11.313 0 3.125 3.124 3.125 8.189 0 11.313l-25.78 25.78c-1.561 1.563-3.609 2.344-5.656 2.344z"/><path d="m214.9 114.05c-31.51 7.67-54.9 36.08-54.9 69.95-21.63 0-40.39 12.26-49.71 30.21-40.11-8.19-70.29-43.68-70.29-86.21 0-48.6 39.4-88 88-88 43.85 0 80.21 32.08 86.9 74.05z"/></g><path d="m197.71 74.3c-57.028-44.086-141.71-3.868-141.71 69.7 0 20.21 6.82 38.84 18.29 53.7-20.86-16.08-34.29-41.33-34.29-69.7 0-48.6 39.4-88 88-88 28.38 0 53.63 13.44 69.71 34.3z" fill="#f9ecb4"/><path d="m214.9 114.05c-31.51 7.67-54.9 36.08-54.9 69.95-21.63 0-40.39 12.26-49.71 30.21-21.04-4.3-39.35-16.11-52-32.51 10.4 8.04 22.65 13.79 36 16.51 9.32-17.95 28.08-30.21 49.71-30.21 0-33.87 23.39-62.28 54.9-69.95-2.36-14.81-8.41-28.38-17.19-39.75 17.37 13.39 29.59 33.14 33.19 55.75z" fill="#ffcd76"/><path d="m432 296h-272c-30.93 0-56-25.07-56-56s25.07-56 56-56c0-47.91 45.994-82.413 91.92-69.21 52.411-71.932 165.158-48.807 185.34 37.4 37.31 2.69 66.74 33.82 66.74 71.81 0 39.76-32.24 72-72 72z" fill="#add9ff"/><path d="m417.1 110.89c-46.084-37.033-114.11-28.233-149.18 19.9-46.024-13.231-91.92 21.386-91.92 69.21-45.061 0-70.917 50.224-46.78 86.78-15.2-10.01-25.22-27.22-25.22-46.78 0-30.93 25.07-56 56-56 0-47.91 45.994-82.413 91.92-69.21 40.365-55.401 122.233-57.324 165.18-3.9z" fill="#d6ecff"/><path d="m296 248-112 144h64l-48 112 128-144h-64z" fill="#ffdf81"/><path d="m71.996 432c-6.697 0-10.51-7.879-6.142-13.122l80-96c2.829-3.395 7.872-3.853 11.268-1.024 3.394 2.829 3.852 7.873 1.024 11.268l-80 96c-1.583 1.898-3.858 2.878-6.15 2.878z" fill="#5989b3"/><path d="m359.996 432c-6.697 0-10.51-7.879-6.142-13.122l80-96c2.83-3.395 7.872-3.853 11.268-1.024 3.394 2.829 3.852 7.873 1.024 11.268l-80 96c-1.582 1.898-3.858 2.878-6.15 2.878z" fill="#5989b3"/><path d="m71.996 496c-6.697 0-10.51-7.879-6.142-13.122l80-96c2.829-3.395 7.872-3.852 11.268-1.024 3.394 2.829 3.852 7.873 1.024 11.268l-80 96c-1.583 1.898-3.858 2.878-6.15 2.878z" fill="#5989b3"/><path d="m359.996 496c-6.697 0-10.51-7.879-6.142-13.122l80-96c2.83-3.395 7.872-3.852 11.268-1.024 3.394 2.829 3.852 7.873 1.024 11.268l-80 96c-1.582 1.898-3.858 2.878-6.15 2.878z" fill="#5989b3"/><circle cx="144" cy="264" fill="#d6ecff" r="8"/><circle cx="132" cy="252" fill="#d6ecff" r="4"/><circle cx="76" cy="164" fill="#ffcd76" r="4"/><circle cx="88" cy="176" fill="#ffcd76" r="8"/></svg>