<svg id="Layer_1" enable-background="new 0 0 504 504" height="512" viewBox="0 0 504 504" width="512" xmlns="http://www.w3.org/2000/svg"><path d="m256 392c-4.418 0-8-3.582-8-8v-32c0-4.418 3.582-8 8-8s8 3.582 8 8v32c0 4.418-3.582 8-8 8z" fill="#ffb562"/><path d="m104 200c0 83.947 68.053 152 152 152s152-68.053 152-152v-88c0-26.51-21.49-48-48-48s-48 21.49-48 48v80h-288c-8.837 0-16-7.164-16-16v-64h48c26.51 0 48 21.49 48 48 0 .945 0 41.757 0 40z" fill="#ffb562"/><path d="m272 351.17c-89.873 9.394-168-60.915-168-151.17v-8h32v8c0 78.55 59.57 143.17 136 151.17z" fill="#ffcd76"/><path d="m408 128h64l-64 48z" fill="#ffdf81"/><g fill="#ff6e29"><path d="m200 192v8c0 30.928 25.072 56 56 56s56-25.072 56-56v-8z"/><path d="m24 192c-8.837 0-16-7.164-16-16v-32h40c13.255 0 24 10.745 24 24v24z"/><path d="m392 32c0-17.674-14.327-32-32-32s-32 14.326-32 32c-8.837 0-16 7.164-16 16s7.163 16 16 16h64c8.837 0 16-7.164 16-16s-7.163-16-16-16z"/><path d="m8 448 32-32-32-32h64l32 32-32 32z"/></g><path d="m432 424h-424c-4.418 0-8-3.582-8-8s3.582-8 8-8h424c4.418 0 8 3.582 8 8s-3.582 8-8 8z" fill="#ffb562"/><path d="m296 488h-32v-40c0-4.418-3.582-8-8-8s-8 3.582-8 8v40h-32c-4.418 0-8 3.582-8 8s3.582 8 8 8h80c4.418 0 8-3.582 8-8s-3.582-8-8-8z" fill="#ffb562"/><path d="m104 192v8" fill="#ffb562"/><circle cx="256" cy="416" fill="#ffdf81" r="32"/><path d="m424 448v-64l80 32z" fill="#ff6e29"/></svg>