<?xml version="1.0"?>
<svg xmlns="http://www.w3.org/2000/svg" xmlns:xlink="http://www.w3.org/1999/xlink" version="1.1" id="Capa_1" x="0px" y="0px" viewBox="0 0 512 512" style="enable-background:new 0 0 512 512;" xml:space="preserve" width="512px" height="512px" class=""><g><g>
	<g>
		<path d="M357.517,229.764c-17.061-17.063-39.746-26.459-63.875-26.459c-24.129,0-46.814,9.396-63.874,26.458    c-17.063,17.061-26.459,39.746-26.459,63.875c0,24.129,9.396,46.814,26.458,63.875c17.613,17.612,40.74,26.417,63.875,26.415    c23.129-0.002,46.267-8.808,63.874-26.415c17.063-17.061,26.459-39.746,26.459-63.875    C383.975,269.509,374.578,246.826,357.517,229.764z M346.909,346.906c-14.228,14.228-33.146,22.064-53.268,22.064    s-39.04-7.836-53.269-22.064c-14.229-14.228-22.064-33.146-22.064-53.268s7.836-39.04,22.065-53.269    c14.228-14.229,33.146-22.064,53.268-22.064c20.122,0,39.04,7.836,53.268,22.064c0,0,0,0.001,0.001,0.001    c14.229,14.228,22.064,33.146,22.064,53.268C368.974,313.76,361.139,332.678,346.909,346.906z" data-original="#000000" class="active-path" data-old_color="#000000" fill="#FFFFFF"/>
	</g>
</g><g>
	<g>
		<path d="M509.804,452.335l-74.779-74.779c28.699-40.526,43.843-88.134,43.843-138.121c0-63.955-24.905-124.082-70.129-169.306    C363.516,24.909,303.389,0.003,239.434,0.003h-0.001h-0.001C175.477,0.003,115.351,24.909,70.128,70.131    C24.905,115.355,0,175.482,0,239.436s24.905,124.082,70.128,169.306c45.223,45.222,105.349,70.128,169.304,70.128h0.001    c0,0,0,0,0.001,0c49.988,0,97.6-15.145,138.127-43.847l74.777,74.778c1.407,1.406,3.314,2.196,5.304,2.196s3.896-0.79,5.304-2.196    l46.858-46.858c1.406-1.407,2.196-3.314,2.196-5.304C512,455.65,511.21,453.743,509.804,452.335z M435.986,347.904h-31.437    c15.447-31.639,16.576-68.557,3.383-100.967h55.802C462.573,282.71,453.105,317.031,435.986,347.904z M426.889,362.903    c-1.174,1.775-2.382,3.532-3.61,5.28c-2.17-0.226-4.42,0.49-6.084,2.152l-6.411,6.412l-13.844-13.844H426.889z M463.728,231.936    h-63.137c-5.28-9.157-11.823-17.78-19.645-25.603c-6.406-6.406-13.35-11.95-20.683-16.651    c-2.202-20.463-5.779-40.207-10.581-58.713h86.175C452.554,161.086,462.523,195.418,463.728,231.936z M426.756,115.969h-81.321    c-6.794-22.112-15.406-42.096-25.548-58.937c-8.945-14.854-18.94-27.008-29.634-36.225    C346.997,33.993,395.543,68.771,426.756,115.969z M246.934,15.574c21.673,3.241,42.77,20.415,60.104,49.197    c8.861,14.714,16.496,32.033,22.689,51.198h-82.793V15.574z M246.934,130.969h87.244c4.275,15.762,7.624,32.547,9.936,49.994    c-30.773-13.743-66.056-14.285-97.18-1.613V130.969z M231.934,15.555V115.97h-82.842c4.304-13.277,9.329-25.743,15.048-37.181    C182.861,41.347,206.697,19.225,231.934,15.555z M182.733,347.904h-38.102c-8.341-30.723-13.024-65.106-13.598-100.967h48.317    C166.158,279.345,167.287,316.264,182.733,347.904z M131.033,231.936c0.574-35.861,5.257-70.244,13.598-100.967h87.303v55.723    c-9.155,5.279-17.776,11.821-25.597,19.641c-7.822,7.822-14.365,16.445-19.645,25.603H131.033z M188.376,20.867    c-13.975,12.131-26.728,29.363-37.653,51.214c-6.708,13.416-12.507,28.15-17.35,43.89H52.111    C83.281,68.837,131.735,34.094,188.376,20.867z M43.01,130.969h86.118c-8.037,31.002-12.543,65.322-13.097,100.967H15.195    c-0.019,0-0.038,0.003-0.057,0.003C16.344,195.42,26.313,161.087,43.01,130.969z M15.139,246.933c0.019,0,0.038,0.003,0.057,0.003    h100.836c0.555,35.644,5.06,69.964,13.097,100.967H43.01C26.313,317.786,16.344,283.452,15.139,246.933z M52.111,362.904h81.262    c4.843,15.74,10.642,30.473,17.35,43.89c10.925,21.851,23.677,39.083,37.653,51.214    C131.735,444.779,83.281,410.035,52.111,362.904z M231.934,463.318c-25.236-3.67-49.073-25.793-67.794-63.235    c-5.719-11.438-10.744-23.904-15.048-37.181h42.337v0.001c4.314,6.361,9.277,12.409,14.908,18.04    c7.821,7.82,16.441,14.362,25.597,19.641V463.318z M216.944,370.335c-42.292-42.291-42.292-111.103,0-153.395    c21.145-21.146,48.921-31.719,76.697-31.719s55.552,10.572,76.697,31.719c42.292,42.291,42.292,111.104,0,153.395    C328.048,412.628,259.235,412.628,216.944,370.335z M246.934,463.318v-55.392c14.931,6.079,30.819,9.121,46.708,9.121    c3.988,0,7.975-0.193,11.948-0.576C288.511,443.943,268.174,460.209,246.934,463.318z M370.337,417.193    c-1.664,1.664-2.38,3.915-2.153,6.086c-23.742,16.678-50.056,28.406-77.876,34.828c12.679-10.958,24.36-26.099,34.573-45.055    c13.108-3.406,25.76-8.992,37.376-16.762l14.491,14.492L370.337,417.193z M374.298,387.118c2.272-1.963,4.492-4.019,6.648-6.175    c2.156-2.156,4.211-4.375,6.174-6.647l13.057,13.057l-12.822,12.823L374.298,387.118z M386.248,422.497l36.251-36.251    l12.819,12.819l-36.251,36.251L386.248,422.497z M457.642,493.891l-47.967-47.968l36.251-36.251l47.968,47.967L457.642,493.891z" data-original="#000000" class="active-path" data-old_color="#000000" fill="#FFFFFF"/>
	</g>
</g></g> </svg>
