<?xml version="1.0" encoding="iso-8859-1"?>
<!-- Generator: Adobe Illustrator 19.0.0, SVG Export Plug-In . SVG Version: 6.00 Build 0)  -->
<svg version="1.1" id="Capa_1" xmlns="http://www.w3.org/2000/svg" xmlns:xlink="http://www.w3.org/1999/xlink" x="0px" y="0px"
	 viewBox="0 0 511.999 511.999" style="enable-background:new 0 0 511.999 511.999;" xml:space="preserve">
<g>
	<path style="fill:#FDED00;" d="M198.087,162.229l-69.878,121.033l105.364,60.832l54.316-94.078v-55.563
		C254.758,191.602,224.071,180.104,198.087,162.229z"/>
	<path style="fill:#FDED00;" d="M214.407,7.604c-12.035,0-22.938,7.096-27.81,18.099l-31.022,70.05
		c-4.716,10.651-2.89,23.021,4.581,31.96c34.435,41.204,86.181,67.455,143.954,67.455s109.519-26.252,143.954-67.455
		c7.47-8.938,9.297-21.308,4.581-31.96l-31.022-70.05C416.749,14.7,405.846,7.604,393.811,7.604H214.407z"/>
	<path style="fill:#FDED00;" d="M304.11,195.168c-5.466,0-10.873-0.254-16.222-0.715V376.65h121.663V162.63
		C379.484,183.148,343.18,195.168,304.11,195.168z"/>
</g>
<polygon style="fill:#9AEFEF;" points="287.888,280.333 328.444,300.61 369,280.333 409.551,300.61 409.551,341.164 369,320.887 
	328.444,341.164 287.888,320.887 "/>
<g>
	<path style="fill:#3498E2;" d="M277.134,499.942L277.134,499.942c-5.939-5.939-5.939-15.568,0-21.507l10.754-10.754l10.754,10.754
		c5.939,5.939,5.939,15.568,0,21.507l0,0C292.703,505.88,283.073,505.88,277.134,499.942z"/>
	<path style="fill:#3498E2;" d="M337.966,499.942L337.966,499.942c-5.939-5.939-5.939-15.568,0-21.507l10.754-10.754l10.754,10.754
		c5.939,5.939,5.939,15.568,0,21.507l0,0C353.534,505.88,343.905,505.88,337.966,499.942z"/>
	<path style="fill:#3498E2;" d="M398.797,499.942L398.797,499.942c-5.939-5.939-5.939-15.568,0-21.507l10.754-10.754l10.754,10.754
		c5.939,5.939,5.939,15.568,0,21.507l0,0C414.366,505.88,404.736,505.88,398.797,499.942z"/>
</g>
<polygon style="fill:#9AEFEF;" points="176.367,199.849 201.351,237.688 246.613,240.405 271.592,278.241 251.315,313.362 
	226.335,275.526 181.074,272.809 156.09,234.97 "/>
<g>
	<path style="fill:#3498E2;" d="M57.25,384.659L57.25,384.659c-2.174-8.113,2.641-16.452,10.754-18.626l14.69-3.936l3.936,14.69
		c2.174,8.113-2.641,16.452-10.754,18.626l0,0C67.762,397.587,59.423,392.772,57.25,384.659z"/>
	<path style="fill:#3498E2;" d="M109.931,415.075L109.931,415.075c-2.174-8.113,2.641-16.452,10.754-18.626l14.69-3.936l3.936,14.69
		c2.174,8.113-2.641,16.452-10.754,18.626l0,0C120.444,428.003,112.105,423.188,109.931,415.075z"/>
	<path style="fill:#3498E2;" d="M162.613,445.491L162.613,445.491c-2.174-8.113,2.641-16.452,10.754-18.626l14.69-3.936l3.936,14.69
		c2.174,8.113-2.641,16.452-10.754,18.626l0,0C173.126,458.418,164.787,453.604,162.613,445.491z"/>
</g>
<g>
	<path style="fill:#FCC000;" d="M304.11,73.505c-40.603,0-74.632-28.097-83.755-65.901h-2.423c0,47.591,38.588,86.178,86.178,86.178
		s86.178-38.588,86.178-86.178h-2.423C378.742,45.408,344.713,73.505,304.11,73.505z"/>
	<rect x="287.886" y="356.372" style="fill:#FCC000;" width="121.663" height="20.277"/>
	<path style="fill:#FCC000;" d="M453.49,97.888c-1.204,3.424-3.018,6.665-5.426,9.548c-34.435,41.204-86.181,67.455-143.954,67.455
		s-109.519-26.252-143.954-67.455c-2.409-2.882-4.222-6.124-5.426-9.548c-3.6,10.138-1.549,21.478,5.426,29.825
		c10.584,12.665,22.81,23.91,36.337,33.421l-8.584,18.726c23.971,16.216,51.085,27.255,79.703,32.351v49.606l-34.038,58.957
		l-95.266-55.002l-10.097,17.489l105.364,60.832l54.316-94.078v-23.319v-11.894c5.373,0.419,10.782,0.642,16.222,0.642
		c37.591,0,73.857-10.133,105.442-28.784v-24.029c14.394-9.821,27.365-21.581,38.513-34.92
		C455.039,119.366,457.09,108.026,453.49,97.888z"/>
</g>
<polygon style="fill:#CED1CF;" points="244.133,302.484 251.315,313.362 271.592,278.241 264.41,267.362 "/>
<path d="M280.284,399.968h15.208v-15.715h45.624v15.715h15.208v-15.715h45.624v15.715h15.208v-233.35
	c13.489-9.616,25.86-21.005,36.743-34.029c9.424-11.277,11.607-26.571,5.698-39.915l-31.022-70.05C422.487,8.88,408.842,0,393.811,0
	h-3.524h-7.604H225.534h-7.604h-3.524c-15.03,0-28.676,8.88-34.763,22.624l-31.021,70.05c-5.91,13.343-3.726,28.639,5.699,39.915
	c10.066,12.045,21.405,22.688,33.721,31.83l-78.078,135.236l0,0l13.17,7.604l7.857-13.609l39.511,22.812l-7.857,13.609l13.17,7.604
	l7.857-13.609l39.511,22.812l-7.857,13.609l13.17,7.604l0,0l0,0l51.786-89.696v121.574 M382.309,15.208
	c-3.837,39.771-37.44,70.97-78.2,70.97s-74.362-31.2-78.2-70.97H382.309z M280.284,201.301v46.678l-9.125,15.805l-20.295-30.741
	l-45.262-2.718l-20.3-30.744l15.334-26.559C224.683,188.109,251.819,197.809,280.284,201.301z M295.492,292.636l32.953,16.475
	l40.556-20.277l32.946,16.475v23.551l-32.946-16.475l-40.556,20.277l-32.953-16.475L295.492,292.636L295.492,292.636z
	 M262.657,278.509l-11.776,20.396l-20.295-30.741l-45.262-2.717l-20.3-30.744l11.776-20.397l20.3,30.744l45.261,2.718
	L262.657,278.509L262.657,278.509z M156.523,249.427l20.301,30.744l45.261,2.717l20.295,30.741l-11.591,20.076l-92.193-53.228
	L156.523,249.427z M401.947,369.046H295.492V333.19l32.953,16.475l40.556-20.277l32.946,16.475V369.046z M401.947,288.306
	l-32.946-16.474l-40.556,20.277l-32.953-16.475v-73.068c2.864,0.126,5.735,0.207,8.618,0.207c34.831,0,68.454-9.264,97.838-26.34
	L401.947,288.306L401.947,288.306z M442.229,122.836c-34.377,41.135-84.719,64.728-138.119,64.728
	c-53.399,0-103.742-23.593-138.119-64.728c-5.682-6.799-7.009-15.997-3.463-24.004l31.022-70.05
	c3.138-7.085,9.625-12.016,17.109-13.264c4.029,48.024,44.403,85.868,93.452,85.868c49.048,0,89.422-37.844,93.452-85.868
	c7.484,1.248,13.971,6.179,17.109,13.264l31.022,70.05C449.237,106.84,447.911,116.037,442.229,122.836z"/>
<rect x="280.282" y="415.176" width="15.208" height="15.208"/>
<path d="M295.492,464.531v-18.939h-15.208v18.939l-8.527,8.527c-8.893,8.894-8.893,23.366,0,32.26
	c4.309,4.309,10.037,6.681,16.131,6.681c6.093,0,11.822-2.373,16.13-6.681c4.309-4.309,6.682-10.037,6.682-16.131
	c0-6.093-2.373-11.822-6.681-16.131L295.492,464.531z M293.263,494.565c-1.436,1.437-3.346,2.227-5.377,2.227
	s-3.941-0.791-5.377-2.227c-2.965-2.965-2.965-7.788,0-10.753l5.377-5.377l5.378,5.378c1.436,1.437,2.226,3.346,2.226,5.376
	S294.7,493.128,293.263,494.565z"/>
<rect x="341.114" y="415.176" width="15.208" height="15.208"/>
<path d="M356.324,464.531v-18.939h-15.208v18.939l-8.527,8.527c-8.893,8.894-8.893,23.366,0,32.26
	c4.309,4.309,10.037,6.681,16.131,6.681s11.822-2.373,16.13-6.681c4.309-4.309,6.682-10.037,6.682-16.131
	c0-6.093-2.373-11.822-6.681-16.131L356.324,464.531z M354.095,494.565c-1.436,1.437-3.346,2.227-5.376,2.227
	c-2.031,0-3.941-0.791-5.377-2.227c-2.965-2.965-2.965-7.788,0-10.753l5.377-5.377l5.378,5.378c1.436,1.437,2.226,3.346,2.226,5.376
	S355.532,493.128,354.095,494.565z"/>
<rect x="401.945" y="415.176" width="15.208" height="15.208"/>
<path d="M417.155,464.531v-18.939h-15.208v18.939l-8.527,8.527c-8.893,8.894-8.893,23.366,0,32.26
	c4.309,4.309,10.037,6.681,16.131,6.681s11.822-2.373,16.13-6.681c4.309-4.309,6.682-10.037,6.682-16.131
	c0-6.093-2.373-11.822-6.681-16.131L417.155,464.531z M414.927,494.565c-1.436,1.437-3.346,2.227-5.377,2.227
	s-3.941-0.791-5.376-2.227c-2.965-2.965-2.965-7.788,0-10.753l5.376-5.377l5.378,5.378c1.436,1.437,2.226,3.346,2.226,5.376
	S416.363,493.128,414.927,494.565z"/>
<path d="M87.151,339.166l-9.469,16.401l-11.648,3.121c-12.149,3.255-19.385,15.789-16.131,27.939
	c1.578,5.885,5.352,10.805,10.628,13.851c3.515,2.03,7.415,3.066,11.368,3.066c1.981,0,3.976-0.261,5.941-0.787
	c12.15-3.256,19.386-15.789,16.131-27.939l-3.121-11.648l9.469-16.401L87.151,339.166z M73.907,388.068
	c-4.053,1.086-8.229-1.327-9.313-5.377l0,0c-1.085-4.05,1.327-8.227,5.377-9.313l7.344-1.968l1.968,7.345
	C80.369,382.805,77.957,386.983,73.907,388.068z"/>
<rect x="97.542" y="315.6" transform="matrix(-0.866 -0.5 0.5 -0.866 34.5977 655.6786)" width="15.208" height="15.208"/>
<rect x="150.219" y="346.018" transform="matrix(-0.866 -0.5 0.5 -0.866 117.6857 738.7783)" width="15.208" height="15.208"/>
<path d="M139.834,369.582l-9.469,16.401l-11.648,3.121c-12.149,3.255-19.385,15.789-16.131,27.939
	c2.727,10.18,11.969,16.91,22.04,16.91c1.949,0,3.929-0.252,5.899-0.78c5.885-1.578,10.805-5.352,13.852-10.628
	c3.047-5.277,3.856-11.425,2.279-17.31l-3.121-11.648l9.469-16.401L139.834,369.582z M131.206,414.941
	c-1.015,1.759-2.655,3.017-4.617,3.542c-4.055,1.085-8.229-1.327-9.313-5.377l0,0c-1.085-4.05,1.327-8.227,5.377-9.313l7.344-1.968
	l1.968,7.345C132.491,411.133,132.222,413.182,131.206,414.941z"/>
<rect x="202.902" y="376.45" transform="matrix(0.866 0.5 -0.5 0.866 220.2347 -53.7991)" width="15.208" height="15.208"/>
<path d="M192.515,399.998l-9.469,16.401l-11.647,3.121c-12.149,3.256-19.385,15.789-16.131,27.939
	c1.578,5.885,5.352,10.805,10.628,13.851c3.515,2.03,7.415,3.066,11.368,3.066c1.981,0,3.976-0.261,5.941-0.787
	c12.15-3.255,19.387-15.789,16.132-27.939l-3.122-11.648l9.469-16.401L192.515,399.998z M179.271,448.899
	c-4.054,1.085-8.229-1.327-9.313-5.376l0,0c-1.085-4.05,1.327-8.227,5.376-9.313l7.345-1.968l1.968,7.345
	C185.732,443.636,183.32,447.814,179.271,448.899z"/>
<g>
	<path style="fill:#FFFFFF;" d="M304.11,172.356c-26.635,0-53.135-6.549-76.636-18.939l7.093-13.453
		c21.322,11.242,45.369,17.184,69.543,17.184V172.356z M213.753,145.311c-4.416-2.907-8.747-6.067-12.869-9.391l9.547-11.838
		c3.743,3.018,7.674,5.887,11.684,8.527L213.753,145.311z M188.981,125.337c-3.775-3.696-7.419-7.621-10.835-11.671l11.626-9.805
		c3.104,3.68,6.418,7.25,9.848,10.608L188.981,125.337z"/>
	<path style="fill:#FFFFFF;" d="M420.839,118.383l-6.117-13.923l13.922-6.117l6.117,13.923L420.839,118.383z M408.605,90.535
		l-14.127-32.154l13.922-6.117l14.127,32.154L408.605,90.535z"/>
	<rect x="280.312" y="26.36" style="fill:#FFFFFF;" width="48.665" height="15.208"/>
	<rect x="371.053" y="213.418" style="fill:#FFFFFF;" width="15.208" height="40.554"/>
	<rect x="212.384" y="202.772" style="fill:#FFFFFF;" width="37.513" height="15.208"/>
</g>
<g>
</g>
<g>
</g>
<g>
</g>
<g>
</g>
<g>
</g>
<g>
</g>
<g>
</g>
<g>
</g>
<g>
</g>
<g>
</g>
<g>
</g>
<g>
</g>
<g>
</g>
<g>
</g>
<g>
</g>
</svg>
