<svg height="511pt" viewBox="0 -11 511.99903 511" width="511pt" xmlns="http://www.w3.org/2000/svg"><path d="m298.566406.5h-85.132812c-15.703125 0-28.433594 12.730469-28.433594 28.433594v34.632812l71 23.34375 70.996094-23.34375v-34.632812c0-15.703125-12.726563-28.433594-28.429688-28.433594zm0 0" fill="#fd747f"/><path d="m226.207031 63.566406v-34.632812c0-15.703125 12.730469-28.433594 28.4375-28.433594h-41.210937c-15.703125 0-28.433594 12.730469-28.433594 28.433594v34.632812l71 23.34375 20.601562-6.773437zm0 0" fill="#e36263"/><g fill="#fd747f"><path d="m35.0625 410.082031-28.40625 12.699219c-2.71875 15.785156-4.914062 28.863281-6.441406 38.027344-1.367188 8.195312 3.910156 16.035156 12.011718 17.867187l30.492188 6.898438c8.394531 1.902343 16.746094-3.324219 18.730469-11.695313l8.675781-36.734375zm0 0"/><path d="m476.9375 410.082031 28.40625 12.699219c2.71875 15.785156 4.914062 28.859375 6.4375 38.027344 1.371094 8.195312-3.90625 16.035156-12.007812 17.863281l-30.492188 6.902344c-8.394531 1.902343-16.746094-3.324219-18.730469-11.699219l-8.679687-36.730469zm0 0"/><path d="m256 417.921875-129.992188 19.515625.144532 20.238281c.125 17.339844 14.214844 31.328125 31.558594 31.328125h196.578124c17.339844 0 31.433594-13.988281 31.558594-31.328125l.144532-20.238281zm0 0"/></g><path d="m31.121094 471.109375c1.527344-9.164063 3.722656-22.242187 6.4375-38.027344.996094-5.785156 2.0625-12.019531 3.1875-18.613281l-5.683594-4.390625-28.40625 12.703125c-.683594 3.945312-2.242188 13.09375-2.390625 13.96875-1.636719 9.605469-3 17.757812-4.050781 24.058594-1.332032 8 3.980468 16.050781 12.011718 17.863281l22.328126 5.054687c-2.828126-3.394531-4.214844-7.945312-3.433594-12.617187zm0 0" fill="#e36263"/><path d="m387.300781 254.949219.40625-57.585938 54.167969 239.78125 63.46875-14.363281c-11.527344-67.054688-32.457031-183.0625-51.21875-256.777344-27.660156-108.710937-118.683594-102.4375-118.683594-102.4375h-158.882812s-91.027344-6.273437-118.683594 102.4375c-18.761719 73.714844-39.691406 189.722656-51.21875 256.777344l63.46875 14.363281 54.167969-239.78125.40625 57.585938 40.359375 7.746093 40.765625 15.511719 50.175781-19.171875 44.945312 19.171875 45.996094-19.691406zm0 0" fill="#75b8db"/><path d="m88.78125 166.003906c23.371094-91.867187 91.992188-101.621094 112.695312-102.4375h-24.917968s-91.027344-6.273437-118.683594 102.4375c-18.761719 73.714844-39.691406 189.722656-51.21875 256.777344l31.449219 7.117188c11.636719-67.804688 32.203125-191.332032 50.675781-263.894532zm0 0" fill="#66a9cc"/><path d="m386.640625 346.957031.324219-46.003906-40.023438-42.441406-45.992187 19.695312-44.949219-19.171875-49.652344 22.476563-26.65625-21.910157h-30.742187l-23.914063 41.351563.324219 46.003906 36.039063 4.589844 47.5625 22.996094 47.039062-24.042969 45.46875 24.042969 45.472656-24.566407zm0 0" fill="#efedee"/><path d="m386.304688 392.960938v.007812l-.3125 44.46875h-259.984376l-.316406-44.46875v-.007812l35.707032-41.414063 47.5625 22.996094 47.039062-24.042969 45.46875 24.042969 45.472656-24.566407zm0 0" fill="#efedee"/><path d="m387.300781 254.949219-.335937 46.003906-38.414063-22.746094-46.277343 27.398438-46.273438-27.398438-46.277344 27.398438-46.273437-27.398438-38.414063 22.746094-.335937-46.003906 38.75-22.945313 46.273437 27.410156 46.277344-27.410156 46.273438 27.410156 46.277343-27.410156zm0 0" fill="#fd747f"/><path d="m386.640625 346.957031-.335937 46.003907-37.753907-22.359376-46.277343 27.40625-46.273438-27.40625-46.277344 27.40625-46.273437-27.40625-37.757813 22.359376-.332031-46.003907 38.089844-22.558593 46.273437 27.40625 46.277344-27.40625 46.273438 27.40625 46.277343-27.40625zm0 0" fill="#fd747f"/><path d="m185 166.273438c-4.265625 0-7.726562-3.460938-7.726562-7.726563v-12.847656c0-4.269531 3.460937-7.726563 7.726562-7.726563 4.269531 0 7.726562 3.457032 7.726562 7.726563v12.847656c0 4.265625-3.457031 7.726563-7.726562 7.726563zm0 0" fill="#545b67"/><path d="m326.996094 166.273438c-4.265625 0-7.726563-3.460938-7.726563-7.726563v-12.847656c0-4.269531 3.460938-7.726563 7.726563-7.726563 4.269531 0 7.726562 3.457032 7.726562 7.726563v12.847656c0 4.265625-3.457031 7.726563-7.726562 7.726563zm0 0" fill="#545b67"/><path d="m256 173.132812c-9.0625 0-17.566406-3.789062-23.339844-10.394531-2.808594-3.214843-2.480468-8.09375.730469-10.902343 3.214844-2.808594 8.09375-2.480469 10.902344.734374 2.839843 3.246094 7.105469 5.109376 11.707031 5.109376 4.597656 0 8.867188-1.863282 11.707031-5.113282 2.808594-3.210937 7.6875-3.539062 10.902344-.730468 3.210937 2.808593 3.539063 7.691406.730469 10.902343-5.773438 6.605469-14.28125 10.394531-23.339844 10.394531zm0 0" fill="#545b67"/></svg>