<svg height="512pt" viewBox="0 0 512 512.10831" width="512pt" xmlns="http://www.w3.org/2000/svg"><path d="m492.328125 3.726562c-9.671875-3.851562-20.273437-4.742187-30.453125-2.558593-1.503906.175781-3.089844.441406-4.59375.707031-53.667969 9.886719-96.835938 48.992188-128.882812 92.777344-3.617188 4.855468-7.058594 9.796875-10.328126 14.742187l1.15625.636719c-40.339843-17.089844-85.890624-17.089844-126.234374 0l1.113281-.621094c-3.265625-4.941406-6.707031-9.886718-10.328125-14.742187-32.015625-43.800781-75.183594-82.90625-128.855469-92.792969-1.5-.265625-3.089844-.53125-4.589844-.707031-10.183593-2.183594-20.78125-1.292969-30.457031 2.558593-12.800781 6.800782-20.507812 20.394532-19.773438 34.871094.265626 4.511719 1.246094 8.949219 2.914063 13.152344 3.488281 9.007812 9.457031 16.84375 17.214844 22.597656 27.804687 20.746094 61.792969 6.796875 92.863281 16.066406 14.5625 4.398438 27.890625 12.136719 38.929688 22.597657 4.324218 4.03125 8.257812 8.46875 11.742187 13.242187l.539063-.300781c-35.929688 24.332031-57.691407 64.695313-58.269532 108.085937 0 1.058594 0 2.207032.085938 3.265626-19.933594 19.6875-32.332032 45.738281-35.042969 73.621093.085937.089844.085937.089844 0 .179688-.265625 2.734375-.355469 5.472656-.355469 8.296875 0 49.433594 34.074219 92.867187 85.453125 117.671875l99.925781 48.550781 99.929688-48.550781c51.375-24.804688 85.449219-68.238281 85.449219-117.671875 0-2.824219-.085938-5.5625-.351563-8.296875-.089844-.089844-.089844-.089844 0-.179688-2.710937-27.882812-15.113281-53.933593-35.046875-73.621093.089844-1.058594.089844-2.207032.089844-3.265626-.582031-43.417968-22.371094-83.804687-58.34375-108.128906l.609375.34375c3.488281-4.773437 7.417969-9.210937 11.742188-13.242187 11.039062-10.460938 24.371093-18.199219 38.929687-22.597657 31.074219-9.269531 65.058594 4.679688 92.867187-16.066406 8.308594-6.113281 14.558594-14.609375 17.917969-24.363281v-.089844c1.269531-3.640625 2.011719-7.445312 2.207031-11.296875.734376-14.476562-6.972656-28.070312-19.773437-34.871094zm0 0" fill="#e6e7e8"/><path d="m194.132812 109.394531-22.332031 12.445313c-2.722656-5.484375-5.789062-10.792969-9.183593-15.890625-3.65625 2.160156-7.191407 4.519531-10.59375 7.0625-11.039063-10.460938-24.367188-18.199219-38.929688-22.597657-31.070312-9.269531-65.058594 4.679688-92.863281-16.066406-7.757813-5.753906-13.726563-13.589844-17.214844-22.597656-1.667969-4.203125-2.648437-8.640625-2.914063-13.152344-.734374-14.476562 6.972657-28.070312 19.773438-34.871094 9.675781-3.851562 20.273438-4.742187 30.457031-2.558593 1.5.175781 3.089844.441406 4.589844.707031 53.671875 9.886719 96.839844 48.992188 128.882813 92.777344 3.617187 4.855468 7.0625 9.796875 10.328124 14.742187zm0 0" fill="#bdc3c7"/><path d="m512.101562 38.597656c-.195312 3.851563-.9375 7.65625-2.207031 11.296875v.089844c-3.359375 9.753906-9.609375 18.25-17.917969 24.363281-27.808593 20.746094-61.792968 6.796875-92.867187 16.066406-14.558594 4.398438-27.890625 12.136719-38.929687 22.597657-3.089844-2.292969-6.269532-4.414063-9.535157-6.441407-3.34375 5.078126-6.378906 10.355469-9.089843 15.800782l-23.484376-12.976563c3.269532-4.945312 6.710938-9.886719 10.328126-14.742187 32.046874-43.785156 75.214843-82.890625 128.882812-92.777344 1.503906-.265625 3.089844-.53125 4.59375-.707031 10.179688-2.183594 20.78125-1.292969 30.453125 2.558593 12.800781 6.800782 20.507813 20.394532 19.773437 34.871094zm0 0" fill="#bdc3c7"/><path d="m162.617188 105.949219c-3.65625 2.160156-7.191407 4.519531-10.59375 7.0625-11.039063-10.460938-24.367188-18.199219-38.929688-22.597657-31.070312-9.269531-65.058594 4.679688-92.863281-16.066406-7.757813-5.753906-13.726563-13.589844-17.214844-22.597656 4.765625-11.742188 16.507813-19.421875 41.226563-16.332031 47.929687 4.898437 91.253906 30.710937 118.375 70.53125zm0 0" fill="#ff5364"/><path d="m509.894531 49.894531v.089844c-3.359375 9.753906-9.609375 18.25-17.917969 24.363281-27.808593 20.746094-61.792968 6.796875-92.867187 16.066406-14.558594 4.398438-27.890625 12.136719-38.929687 22.597657-3.089844-2.292969-6.269532-4.414063-9.535157-6.441407 27.035157-40.1875 70.546875-66.265624 118.730469-71.152343 23.394531-2.914063 35.136719 3.796875 40.519531 14.476562zm0 0" fill="#ff5364"/><path d="m432.652344 362.039062s79.449218 35.3125 79.449218 150.070313h-512c0-114.757813 79.449219-150.070313 79.449219-150.070313zm0 0" fill="#35495e"/><path d="m420.480469 362.039062s73.964843 35.3125 73.964843 150.070313h-476.6875c0-114.757813 73.964844-150.070313 73.964844-150.070313zm0 0" fill="#3f5c6c"/><path d="m441.480469 319.402344c0 49.433594-34.074219 92.867187-85.449219 117.671875l-99.929688 48.550781-99.925781-48.550781c-51.378906-24.804688-85.453125-68.238281-85.453125-117.671875 0-2.824219.089844-5.5625.355469-8.296875.085937-.089844.085937-.089844 0-.179688 2.710937-27.882812 15.109375-53.933593 35.042969-73.621093-.085938-1.058594-.085938-2.207032-.085938-3.265626 0-75.5625 67.175782-136.828124 150.066406-136.828124 82.890626 0 150.070313 61.265624 150.070313 136.828124 0 1.058594 0 2.207032-.089844 3.265626 19.933594 19.6875 32.335938 45.738281 35.046875 73.621093-.089844.089844-.089844.089844 0 .179688.265625 2.734375.351563 5.472656.351563 8.296875zm0 0" fill="#bdc3c7"/><path d="m171.800781 121.839844-8.035156 4.414062c-3.484375-4.773437-7.417969-9.210937-11.742187-13.242187 3.402343-2.542969 6.9375-4.902344 10.59375-7.0625 3.394531 5.097656 6.460937 10.40625 9.183593 15.890625zm0 0" fill="#df4d60"/><path d="m194.132812 109.394531-22.332031 12.445313c-2.722656-5.484375-5.789062-10.792969-9.183593-15.890625 6.753906-4.316407 13.839843-8.097657 21.1875-11.296875 3.617187 4.855468 7.0625 9.796875 10.328124 14.742187zm0 0" fill="#95a5a5"/><path d="m360.179688 113.011719c-4.324219 4.03125-8.253907 8.46875-11.742188 13.242187l-6.882812-3.882812c2.710937-5.445313 5.746093-10.722656 9.089843-15.800782 3.265625 2.027344 6.445313 4.148438 9.535157 6.441407zm0 0" fill="#df4d60"/><path d="m350.644531 106.570312c-3.34375 5.078126-6.378906 10.355469-9.089843 15.800782l-23.484376-12.976563c3.269532-4.945312 6.710938-9.886719 10.328126-14.742187 7.707031 3.40625 15.140624 7.390625 22.246093 11.917968zm0 0" fill="#95a5a5"/><path d="m441.128906 310.925781c-.089844.089844-.089844.089844 0 .179688-4.0625 45.550781-36.988281 85.097656-85.097656 108.3125l-99.929688 48.550781-99.925781-48.550781c-48.113281-23.214844-81.039062-62.761719-85.097656-108.3125.085937-.089844.085937-.089844 0-.179688 2.710937-27.882812 15.109375-53.933593 35.042969-73.621093-.085938-1.058594-.085938-2.207032-.085938-3.265626 0-75.5625 67.175782-136.828124 150.066406-136.828124 82.890626 0 150.070313 61.265624 150.070313 136.828124 0 1.058594 0 2.207032-.089844 3.265626 19.933594 19.6875 32.335938 45.738281 35.046875 73.621093zm0 0" fill="#e6e7e8"/><path d="m357.882812 371.574219c-10.144531 12.675781-23.234374 22.675781-38.132812 29.128906 0 .050781-.039062.089844-.089844.089844-20.019531 8.949219-41.632812 13.78125-63.558594 14.210937-21.925781-.429687-43.539062-5.261718-63.558593-14.210937-.046875 0-.085938-.039063-.085938-.089844-14.898437-6.453125-27.992187-16.453125-38.136719-29.128906-21.273437-27.71875-13.859374-61.617188 3.972657-88.984375l.617187-.792969c10.578125 9.195313 22.882813 16.1875 36.195313 20.566406 19.90625 6.773438 41.605469 6.019531 60.996093-2.117187 19.390626 8.136718 41.089844 8.890625 61 2.117187 13.3125-4.378906 25.617188-11.371093 36.191407-20.566406l.617187.792969c17.832032 27.367187 25.25 61.265625 3.972656 88.984375zm0 0" fill="#d75e72"/><path d="m335.550781 353.210938c.011719 17.125-5.535156 33.789062-15.800781 47.492187 0 .050781-.039062.089844-.089844.089844-20.019531 8.949219-41.632812 13.78125-63.558594 14.210937-21.925781-.429687-43.539062-5.261718-63.558593-14.210937-.046875 0-.085938-.039063-.085938-.089844-22.023437-29.429687-20.925781-70.136719 2.648438-98.339844 19.90625 6.773438 41.605469 6.019531 60.996093-2.117187 19.390626 8.136718 41.089844 8.890625 61 2.117187 11.960938 14.242188 18.496094 32.253907 18.449219 50.847657zm0 0" fill="#802d40"/><path d="m194.308594 229.625c-14.625 0-26.480469-11.855469-26.480469-26.480469 0-14.628906 11.855469-26.484375 26.480469-26.484375s26.484375 11.855469 26.484375 26.484375c0 14.625-11.859375 26.480469-26.484375 26.480469zm0 0" fill="#2c3e50"/><path d="m317.894531 229.625c-14.625 0-26.480469-11.855469-26.480469-26.480469 0-14.628906 11.855469-26.484375 26.480469-26.484375 14.628907 0 26.484375 11.855469 26.484375 26.484375 0 14.625-11.855468 26.480469-26.484375 26.480469zm0 0" fill="#2c3e50"/><path d="m220.792969 306.777344v19.953125c0 4.875 3.953125 8.824219 8.828125 8.824219h17.652344c4.875 0 8.828124-3.949219 8.828124-8.824219v-26.484375zm0 0" fill="#d1d4d1"/><path d="m229.621094 306.777344v19.953125c0 4.855469 1.984375 8.824219 4.414062 8.824219h8.824219c2.429687 0 4.414063-3.96875 4.414063-8.824219v-26.484375zm0 0" fill="#ecf0f1"/><path d="m256.101562 300.246094v26.484375c0 4.875 3.953126 8.824219 8.828126 8.824219h17.65625c4.875 0 8.828124-3.949219 8.828124-8.824219v-19.953125zm0 0" fill="#d1d4d1"/><path d="m264.929688 300.246094v26.484375c0 4.855469 1.988281 8.824219 4.414062 8.824219h8.828125c2.425781 0 4.414063-3.96875 4.414063-8.824219v-19.953125zm0 0" fill="#ecf0f1"/><path d="m220.792969 485.625-46.789063 25.335938c-5.414062 2.023437-11.476562 1.265624-16.230468-2.023438-4.753907-3.292969-7.59375-8.703125-7.601563-14.484375v-44.136719c.003906-6.109375 3.164063-11.785156 8.359375-15 5.191406-3.21875 11.679688-3.519531 17.152344-.800781l38.398437 21.007813 6.710938 3.621093zm0 0" fill="#c03a2b"/><path d="m291.414062 459.144531 45.074219-24.621093c5.472657-2.734376 11.96875-2.441407 17.171875.773437 5.207032 3.21875 8.375 8.898437 8.375 15.019531v44.136719c-.003906 5.785156-2.839844 11.203125-7.59375 14.503906-4.753906 3.296875-10.824218 4.054688-16.242187 2.03125l-46.785157-25.363281zm0 0" fill="#c03a2b"/><path d="m220.792969 482.695312-46.789063 19.703126c-11.5625 3.363281-23.832031-3.292969-23.832031-12.835938v-34.320312c.132813-4.226563 2.390625-8.097657 6.003906-10.292969 5.792969-3.785157 13.066407-4.527344 19.507813-1.996094l38.398437 16.339844 6.710938 2.808593zm0 0" fill="#e64c3c"/><path d="m291.414062 462.101562 45.074219-19.140624c11.730469-4.5625 25.546875 2.058593 25.546875 12.28125v34.304687c0 9.574219-12.359375 16.214844-23.835937 12.851563l-46.785157-19.703126zm0 0" fill="#e64c3c"/><path d="m313.21875 403.617188c-18.242188 7.054687-37.566406 10.90625-57.117188 11.386718-19.550781-.480468-38.871093-4.332031-57.113281-11.386718 1.21875-2.539063 2.664063-4.960938 4.324219-7.238282 12.46875-16.5 32.113281-25.996094 52.789062-25.511718 20.675782-.484376 40.320313 9.011718 52.789063 25.511718 1.660156 2.277344 3.109375 4.699219 4.328125 7.238282zm0 0" fill="#df4d60"/><path d="m308.890625 396.378906c-16.976563 6-34.789063 9.308594-52.789063 9.796875-18-.488281-35.8125-3.796875-52.789062-9.796875 12.46875-16.5 32.113281-25.996094 52.789062-25.511718 20.675782-.484376 40.320313 9.011718 52.789063 25.511718zm0 0" fill="#ff5364"/><path d="m222.945312 315.492188c-30.085937-.511719-58.644531-13.339844-79.015624-35.488282-3.34375-3.464844-3.296876-8.96875.109374-12.375 3.402344-3.402344 8.910157-3.453125 12.375-.105468 39.183594 39.167968 77.503907 31.273437 90.871094 26.753906v-29.339844c0-4.875 3.949219-8.828125 8.824219-8.828125 4.878906 0 8.828125 3.953125 8.828125 8.828125v35.308594c.019531 3.359375-1.867188 6.441406-4.871094 7.945312-11.730468 4.988282-24.375 7.472656-37.121094 7.300782zm0 0" fill="#bdc3c7"/><path d="m289.257812 315.492188c-12.75.15625-25.390624-2.34375-37.117187-7.34375-2.988281-1.503907-4.871094-4.558594-4.867187-7.902344v-35.308594c0-4.875 3.953124-8.828125 8.828124-8.828125s8.828126 3.953125 8.828126 8.828125v29.339844c13.320312 4.53125 51.660156 12.441406 90.871093-26.753906 3.464844-3.347657 8.96875-3.296876 12.375.105468 3.40625 3.40625 3.453125 8.910156.109375 12.375-20.375 22.152344-48.9375 34.976563-79.027344 35.488282zm0 0" fill="#bdc3c7"/><path d="m256.101562 264.9375c-4.914062-.097656-9.527343-2.382812-12.578124-6.234375l-11.714844-14.007813c-4.652344-5.5625-1.359375-15.070312 5.21875-15.070312h38.167968c6.578126 0 9.871094 9.507812 5.21875 15.070312l-11.714843 14.007813c-3.054688 3.855469-7.675781 6.144531-12.597657 6.234375zm0 0" fill="#ff5364"/><path d="m194.308594 194.316406c0 4.875-3.953125 8.828125-8.828125 8.828125s-8.828125-3.953125-8.828125-8.828125 3.953125-8.828125 8.828125-8.828125 8.828125 3.953125 8.828125 8.828125zm0 0" fill="#ecf0f1"/><path d="m317.894531 194.316406c0 4.875-3.953125 8.828125-8.828125 8.828125s-8.824218-3.953125-8.824218-8.828125 3.949218-8.828125 8.824218-8.828125 8.828125 3.953125 8.828125 8.828125zm0 0" fill="#ecf0f1"/><path d="m300.242188 466.867188v11.035156c0 12.1875-9.882813 22.066406-22.070313 22.066406h-44.136719c-12.191406 0-22.070312-9.878906-22.070312-22.066406v-11.035156c.082031-12.15625 9.914062-21.988282 22.070312-22.070313h44.136719c12.152344.082031 21.988281 9.914063 22.070313 22.070313zm0 0" fill="#e64c3c"/><path d="m300.242188 467.96875v8.828125c-.039063 2.996094-.960938 5.914063-2.648438 8.386719-4.59375 6.050781-11.832031 9.503906-19.421875 9.269531h-44.136719c-7.59375.234375-14.828125-3.21875-19.421875-9.269531-1.691406-2.472656-2.613281-5.390625-2.648437-8.386719v-8.828125c.074218-4.105469 1.777344-8.011719 4.738281-10.855469 4.628906-4.503906 10.875-6.953125 17.332031-6.796875h44.136719c6.453125-.15625 12.699219 2.292969 17.328125 6.796875 2.960938 2.84375 4.667969 6.75 4.742188 10.855469zm0 0" fill="#fb7b76"/></svg>