<svg height="510pt" viewBox="-1 0 510 510.86913" width="510pt" xmlns="http://www.w3.org/2000/svg"><path d="m483.222656 148.851562c-45.109375-74.507812-137.355468-166.226562-170.8125-146.011718-6.527344 4.746094-10.683594 12.089844-11.386718 20.128906-.550782 2.914062-.902344 5.863281-1.058594 8.828125-29.339844-8.59375-60.527344-8.59375-89.867188 0-.152344-2.992187-.507812-5.972656-1.058594-8.917969-.703124-8.015625-4.859374-15.328125-11.386718-20.039062-33.457032-20.214844-125.707032 71.503906-170.816406 146.011718-45.109376 74.503907-25.597657 103.632813 7.769531 123.847657 18.097656 10.859375 36.632812 16.949219 56.9375 8.210937 4.148437 17.300782 24.984375 37.871094 48.992187 54.289063-.175781 2.648437-.261718 5.296875-.261718 7.945312l.261718 6.710938v.351562c-.175781 3.53125-.261718 7.0625-.261718 10.59375 0 53.671875 15.535156 150.066407 34.691406 150.066407 8.773437 0 16.640625-8.984376 22.703125-23.789063 18.777343 4.511719 38.058593 6.574219 57.363281 6.136719 19.3125.421875 38.597656-1.652344 57.378906-6.179688 6.074219 14.8125 13.9375 23.832032 22.714844 23.832032 11.296875 0 21.273438-33.453126 27.628906-71.855469 3.1875 3.089843 6.933594 5.542969 11.035156 7.238281 4.304688 1.878906 8.957032 2.839844 13.65625 2.824219 19.5 0 35.308594-15.808594 35.308594-35.308594s-15.808594-35.308594-35.308594-35.308594c-1.984374-.003906-3.964843.171875-5.914062.527344-4.433594.773437-8.683594 2.359375-12.535156 4.679687.527344-8.121093.792968-15.890624.792968-22.863281 0-3.53125-.089843-7.0625-.265624-10.59375v-.351562l.265624-6.710938c0-2.648437-.089843-5.296875-.265624-7.945312 24.011718-16.417969 44.84375-36.988281 48.992187-54.289063 20.304687 8.738282 38.84375 2.648438 56.941406-8.210937 33.367188-20.214844 52.789063-49.34375 7.765625-123.847657zm-69.824218 3.351563c-1.25-11.613281-4.390626-22.945313-9.304688-33.542969 6.246094 13.234375 9.597656 27.648438 9.832031 42.285156-.015625 3.503907-.261719 7.003907-.738281 10.476563.476562-3.472656.722656-6.972656.738281-10.476563 0-2.921874-.175781-5.839843-.527343-8.742187zm-39.25-76.261719c-.882813-.933594-1.84375-1.871094-2.796876-2.796875.953126.925781 1.871094 1.863281 2.796876 2.796875zm14.003906 141.242188c2.011718-1.765625 3.910156-3.664063 5.710937-5.585938-1.800781 1.914063-3.691406 3.785156-5.710937 5.578125zm-5.210938 4.414062c-1.066406.8125-2.234375 1.582032-3.34375 2.367188 2.101563-1.488282 4.117188-3.039063 6.046875-4.652344-.910156.75-1.730469 1.542969-2.703125 2.277344zm12.449219-11.546875c2.226563-2.511719 4.292969-5.164062 6.179687-7.945312-1.886718 2.78125-3.953124 5.433593-6.179687 7.945312zm6.707031-8.757812c1.601563-2.433594 3.054688-4.960938 4.351563-7.574219-1.308594 2.613281-2.777344 5.144531-4.394531 7.574219zm5.554688-10.246094c.933594-2.101563 1.769531-4.25 2.503906-6.445313-.773438 2.207032-1.613281 4.34375-2.550781 6.445313zm3.53125-9.648437c.625-2.242188 1.121094-4.554688 1.535156-6.90625-.496094 2.351562-.988281 4.664062-1.617188 6.90625zm-7.789063-64.441407c-.730469-1.5625-1.535156-3.109375-2.339843-4.652343.726562 1.550781 1.527343 3.089843 2.28125 4.660156zm-3.671875-7.203125c-.757812-1.386718-1.570312-2.753906-2.382812-4.132812.699218 1.386718 1.582031 2.753906 2.304687 4.140625zm-4.175781-7.0625c-.785156-1.261718-1.613281-2.515625-2.453125-3.761718.757812 1.226562 1.589844 2.480468 2.375 3.742187zm-4.652344-6.957031c-.828125-1.175781-1.679687-2.335937-2.550781-3.476563.824219 1.144532 1.648438 2.300782 2.472656 3.457032zm-5.214843-6.824219c-.882813-1.09375-1.765626-2.171875-2.648438-3.25.933594 1.105469 1.808594 2.183594 2.648438 3.25zm-5.5625-6.601562c-.898438-1.019532-1.8125-2.027344-2.734376-3.019532.953126 1.015626 1.875 2.03125 2.769532 3.042969zm-19.421876-18.539063c-.882812-.734375-1.765624-1.484375-2.699218-2.207031.980468.742188 1.863281 1.492188 2.761718 2.226562zm-7.589843-5.851562c-.777344-.566407-1.527344-1.148438-2.3125-1.703125.847656.570312 1.597656 1.15625 2.375 1.71875zm14.53125 11.828125c-.9375-.882813-1.855469-1.703125-2.808594-2.535156 1.015625.847656 1.933594 1.707031 2.867187 2.550781zm-23.710938 172.058594c8.355469-2.820313 16.449219-6.363282 24.1875-10.59375 3.222657-1.765626 6.257813-3.664063 9.1875-5.632813-2.921875 1.96875-5.949219 3.875-9.1875 5.632813 1.675781 2.558593 3.351563 5.03125 5.03125 7.328124 4.042969 5.882813 8.402344 11.539063 13.0625 16.949219-2.972656.382813-5.917969.945313-8.824219 1.675781-7.9375 1.996094-15.703124 4.621094-23.21875 7.855469-1.058593-2.734375-2.117187-5.472656-3.355468-8.121093-2.027344-5.117188-4.414063-10.0625-6.882813-15.007813zm-247.050781-70.363282c-.476562-3.480468-.726562-6.988281-.742188-10.496094.242188-14.621093 3.59375-29.019531 9.835938-42.242187-4.914062 10.597656-8.058594 21.929687-9.304688 33.546875-.351562 2.898438-.53125 5.816406-.53125 8.738281.019532 3.496094.265626 6.988281.742188 10.453125zm28.441406 48.550782c1.539063 1.242187 3.101563 2.472656 4.734375 3.644531-.785156-.574219-1.644531-1.101563-2.402343-1.695313-.757813-.589844-1.5-1.304687-2.332032-1.949218zm-8.253906-7.558594c1.484375 1.546875 3.003906 3.074218 4.628906 4.53125-1.625-1.457032-3.144531-2.984375-4.628906-4.53125zm-8.3125-10.007813c1.804688 2.632813 3.777344 5.152344 5.902344 7.539063-2.125-2.386719-4.097656-4.90625-5.902344-7.539063zm-11.300781-27.816406c.40625 2.304687.882812 4.5625 1.507812 6.761719-.617187-2.199219-1.058593-4.457032-1.507812-6.761719zm2.578125 10.195313c.6875 2.046874 1.472656 4.042968 2.339844 6.003906-.867188-1.960938-1.652344-3.910156-2.339844-6.003906zm3.785156 9.179687c1.074219 2.09375 2.253906 4.128906 3.53125 6.101563-1.277344-1.980469-2.457031-4.027344-3.53125-6.128907zm34.898438-120.839844c-.953126.925781-1.871094 1.863281-2.800782 2.796875.929688-.933594 1.847656-1.871094 2.800782-2.796875zm10.589843-9.355469c.882813-.734374 1.765625-1.484374 2.703125-2.207031-.917968.722657-1.800781 1.472657-2.703125 2.207031zm9.90625-7.539062c-.785156.554688-1.535156 1.136719-2.3125 1.703125.777344-.582031 1.527344-1.167969 2.3125-1.703125zm-14.035156 10.996094c-.953125.832031-1.871094 1.6875-2.808594 2.535156.9375-.863281 1.855469-1.722656 2.808594-2.550781zm-12.527344 12.085937c-.929687 1-1.839843 2.007813-2.734375 3.019531.898438-1.03125 1.8125-2.042968 2.734375-3.035156zm-5.640625 6.375c-.882812 1.074219-1.765625 2.152344-2.648437 3.246094.910156-1.109375 1.738281-2.1875 2.675781-3.265625zm-5.207031 6.550781c-.878906 1.175782-1.726563 2.335938-2.550781 3.476563.828125-1.175781 1.679687-2.34375 2.550781-3.496094zm-4.75 6.671876c-.882813 1.246093-1.667969 2.5-2.453125 3.761718.785156-1.28125 1.613281-2.535156 2.453125-3.777344zm-4.246094 6.71875c-.8125 1.375-1.625 2.746093-2.382812 4.128906.722656-1.402344 1.605469-2.769532 2.382812-4.148438zm-3.714843 6.683593c-.804688 1.542969-1.609376 3.085938-2.339844 4.648438.730468-1.585938 1.535156-3.125 2.339844-4.667969zm23.59375 144.832031c-2.90625-.730468-5.855469-1.292968-8.828126-1.675781 4.691407-5.4375 9.082032-11.125 13.152344-17.039062 1.679688-2.292969 3.269532-4.765625 4.945313-7.238281-3.089844-1.703126-6.019531-3.53125-8.828125-5.429688 2.835937 1.890625 5.746094 3.726562 8.828125 5.429688 7.738281 4.230468 15.832031 7.773437 24.1875 10.59375v.085937c-2.472657 4.945313-4.855469 9.890625-6.886719 15.007813-1.234375 2.648437-2.292969 5.386718-3.351562 8.121093-7.519532-3.234375-15.28125-5.859375-23.21875-7.855469zm195.972656-213.007812 14.652344 7.058594-35.308594-16.945313zm-161.898438 7.058594 15.359375-7.414063 19.953125-9.53125zm0 0" fill="#e6e7e8"/><path d="m475.457031 272.699219c-18.097656 10.859375-36.636719 16.949219-56.941406 8.210937 1.660156-5.445312.957031-11.339844-1.941406-16.242187-3.617188-5.828125-11.828125-11.652344-30.367188-9.179688-4.660156-5.410156-9.019531-11.066406-13.0625-16.949219-1.679687-2.296874-3.355469-4.769531-5.03125-7.328124 5.1875-2.8125 10.144531-6.03125 14.828125-9.621094 19.5625-13.988282 31.113282-36.601563 30.984375-60.644532 0-39.726562-28.070312-83.070312-70.621093-109.730468l-14.652344-7.058594-20.65625-9.886719c-2.648438-.882812-5.296875-1.765625-8.03125-2.472656.15625-2.964844.507812-5.914063 1.058594-8.828125.703124-8.039062 4.859374-15.382812 11.386718-20.128906 33.457032-20.214844 125.703125 71.503906 170.8125 146.011718 45.109375 74.503907 25.601563 103.632813-7.765625 123.847657zm0 0" fill="#bdc3c7"/><path d="m210.097656 31.796875c-2.734375.707031-5.382812 1.589844-8.03125 2.472656l-19.953125 9.53125-15.359375 7.414063c-42.546875 26.660156-70.621094 70.003906-70.621094 109.730468-.105468 24.261719 11.664063 47.046876 31.515626 60.996094 4.519531 3.453125 9.300781 6.550782 14.300781 9.269532-1.675781 2.472656-3.265625 4.945312-4.945313 7.238281-4.070312 5.914062-8.460937 11.601562-13.152344 17.039062-18.535156-2.472656-26.746093 3.351563-30.367187 9.179688-2.894531 4.902343-3.597656 10.796875-1.941406 16.242187-20.304688 8.738282-38.839844 2.648438-56.9375-8.210937-33.367188-20.214844-52.789063-49.34375-7.769531-123.847657 45.023437-74.507812 137.359374-166.226562 170.816406-146.011718 6.527344 4.710937 10.683594 12.023437 11.386718 20.039062.550782 2.945313.90625 5.925782 1.058594 8.917969zm0 0" fill="#bdc3c7"/><path d="m177.789062 36.121094-15.273437 7.328125-.441406.265625c-41.839844 26.214844-70.265625 67.441406-74.148438 107.429687-.425781 3.25-.632812 6.523438-.621093 9.800781-.132813 27.136719 13.023437 52.625 35.222656 68.234376-29.484375 40.34375-46.875 39.902343-68.414063 25.953124-24.097656-15.625-44.402343-42.195312-7.945312-98.425781 36.460937-56.230469 105.316406-138.152343 129.414062-122.527343.851563.5 1.601563 1.160156 2.207031 1.941406zm0 0" fill="#ff5364"/><path d="m456.742188 255.132812c-21.628907 14.035157-39.019532 14.390626-68.679688-26.304687 21.894531-15.65625 34.832031-40.96875 34.691406-67.882813.003906-3.214843-.171875-6.429687-.527344-9.625-3.972656-40.164062-32.398437-81.390624-74.242187-107.605468l-.441406-.265625-14.742188-7.0625c.695313-.871094 1.53125-1.617188 2.472657-2.207031 24.097656-15.625 92.953124 66.296874 129.414062 122.527343 36.457031 56.230469 16.152344 82.800781-7.945312 98.425781zm0 0" fill="#ff5364"/><path d="m182.113281 43.800781-15.359375 7.414063c-42.546875 26.660156-70.621094 70.003906-70.621094 109.730468-.105468 24.261719 11.664063 47.046876 31.515626 60.996094-1.765626 2.5625-3.441407 4.945313-5.121094 7.238282-22.199219-15.609376-35.355469-41.097657-35.222656-68.234376-.011719-3.277343.195312-6.550781.621093-9.800781 3.882813-39.988281 32.308594-81.214843 74.148438-107.429687l.441406-.265625 15.273437-7.328125c2.054688 2.164062 3.539063 4.800781 4.324219 7.679687zm0 0" fill="#df4d60"/><path d="m127.648438 221.941406c4.519531 3.453125 9.300781 6.550782 14.300781 9.269532-1.675781 2.472656-3.265625 4.945312-4.945313 7.238281-5.035156-2.75-9.871094-5.84375-14.476562-9.269531 1.679687-2.292969 3.355468-4.675782 5.121094-7.238282zm0 0" fill="#95a5a5"/><path d="m210.097656 31.796875c-2.734375.707031-5.382812 1.589844-8.03125 2.472656l-19.953125 9.53125c-.785156-2.878906-2.269531-5.515625-4.324219-7.679687l20.921876-10.0625.527343-.175782c2.914063-.972656 5.738281-1.855468 8.652344-2.648437.394531-.078125.777344-.195313 1.148437-.355469.550782 2.945313.90625 5.925782 1.058594 8.917969zm0 0" fill="#95a5a5"/><path d="m422.753906 160.945312c.140625 26.914063-12.796875 52.226563-34.691406 67.882813-1.675781-2.296875-3.355469-4.679687-5.121094-7.238281 19.5625-13.988282 31.113282-36.601563 30.984375-60.644532 0-39.726562-28.070312-83.070312-70.621093-109.730468l-14.652344-7.058594c.761718-2.878906 2.183594-5.535156 4.148437-7.769531l14.742188 7.0625.441406.265625c41.84375 26.214844 70.269531 67.441406 74.242187 107.605468.355469 3.195313.53125 6.410157.527344 9.625zm0 0" fill="#df4d60"/><path d="m311.175781 26.058594 21.625 10.328125c-1.964843 2.234375-3.386719 4.890625-4.148437 7.769531l-20.65625-9.886719c-2.648438-.882812-5.296875-1.765625-8.03125-2.472656.15625-2.964844.507812-5.914063 1.058594-8.828125.480468.074219.953124.195312 1.410156.351562 2.648437.707032 5.472656 1.589844 8.210937 2.5625zm0 0" fill="#95a5a5"/><path d="m388.0625 228.828125c-4.734375 3.589844-9.71875 6.835937-14.917969 9.710937-1.679687-2.296874-3.355469-4.769531-5.03125-7.328124 5.1875-2.8125 10.144531-6.03125 14.828125-9.621094 1.765625 2.558594 3.445313 4.941406 5.121094 7.238281zm0 0" fill="#95a5a5"/><path d="m422.753906 413.765625c0 19.5-15.808594 35.308594-35.308594 35.308594-4.707031.019531-9.367187-.941407-13.683593-2.824219-4.101563-1.695312-7.847657-4.148438-11.035157-7.238281l6.269532-55.347657c3.851562-2.320312 8.101562-3.90625 12.535156-4.679687 1.949219-.355469 3.929688-.53125 5.914062-.527344 9.363282 0 18.34375 3.71875 24.96875 10.339844 6.621094 6.621094 10.339844 15.605469 10.339844 24.96875zm0 0" fill="#bdc3c7"/><path d="m413.925781 160.945312c0 31.335938-17.476562 54.730469-45.8125 70.265626-7.738281 4.230468-15.832031 7.773437-24.1875 10.59375v.085937c-28.730469 9.132813-58.753906 13.515625-88.894531 12.976563-30.140625.539062-60.164062-3.84375-88.894531-12.976563v-.085937c-8.355469-2.820313-16.449219-6.363282-24.1875-10.59375-28.335938-15.535157-45.816407-38.929688-45.816407-70.265626 0-2.921874.179688-5.839843.53125-8.742187 3.617188-37.164063 30.632813-76.269531 70.089844-100.988281l35.3125-16.945313c2.648438-.882812 5.296875-1.765625 8.03125-2.472656 29.339844-8.59375 60.527344-8.59375 89.867188 0 2.734375.707031 5.382812 1.589844 8.03125 2.472656l35.308594 16.945313c39.460937 24.71875 66.472656 63.824218 70.09375 100.988281.351562 2.902344.527343 5.820313.527343 8.742187zm0 0" fill="#e6e7e8"/><path d="m350.808594 256.898438c-2.207032.882812-4.5 1.765624-6.882813 2.5625v.085937c-28.730469 9.132813-58.753906 13.515625-88.894531 12.976563-30.140625.539062-60.164062-3.84375-88.894531-12.976563v-.085937c-2.382813-.796876-4.679688-1.679688-6.886719-2.5625 2.03125-5.117188 4.414062-10.0625 6.886719-15.007813 28.730469 9.132813 58.753906 13.515625 88.894531 12.976563 30.140625.539062 60.164062-3.84375 88.894531-12.976563 2.46875 4.945313 4.855469 9.890625 6.882813 15.007813zm0 0" fill="#d1d4d1"/><path d="m410.308594 276.671875c-1.414063 12.273437-17.480469 31.074219-41.578125 48.289063.351562 3.441406.707031 6.882812.792969 10.238281.175781 2.648437.265624 5.296875.265624 7.945312l-.265624 6.710938v.351562c.175781 3.53125.265624 7.0625.265624 10.59375 0 6.972657-.265624 14.742188-.792968 22.863281-1.0625 17.476563-3.269532 36.988282-6.269532 55.347657-6.355468 38.402343-16.332031 71.855469-27.628906 71.855469-10.328125 0-19.421875-12.355469-25.777344-32.128907-17.792968 4.113281-36.03125 6.011719-54.289062 5.648438-18.261719.402343-36.503906-1.496094-54.289062-5.648438-6.355469 19.773438-15.449219 32.128907-25.777344 32.128907-19.15625 0-34.691406-96.394532-34.691406-150.066407 0-3.53125.085937-7.0625.261718-10.59375v-.351562l-.261718-6.710938c0-2.648437.085937-5.296875.261718-7.945312.089844-3.355469.441406-6.796875.796875-10.238281-24.101562-17.214844-40.167969-36.015626-41.578125-48.289063-.488281-2.511719-.046875-5.113281 1.234375-7.324219 3.691407-4.402344 9.421875-6.546875 15.097657-5.652344 12.761718.890626 25.246093 4.152344 36.808593 9.625.972657-2.828124 1.941407-5.5625 3.003907-8.300781 1.058593-2.734375 2.117187-5.472656 3.351562-8.121093 2.207031.882812 4.503906 1.765624 6.886719 2.5625v.085937c28.730469 9.132813 58.753906 13.515625 88.894531 12.976563 30.140625.539062 60.164062-3.84375 88.894531-12.976563v-.085937c2.382813-.796876 4.675781-1.679688 6.882813-2.5625 1.238281 2.648437 2.296875 5.386718 3.355468 8.121093 1.058594 2.738281 2.03125 5.472657 3 8.300781 11.566407-5.472656 24.050782-8.734374 36.8125-9.625 5.675782-.894531 11.402344 1.25 15.09375 5.652344 1.285157 2.210938 1.722657 4.8125 1.238282 7.324219zm0 0" fill="#e6e7e8"/><path d="m202.066406 140.109375c0 14.628906-11.859375 26.484375-26.484375 26.484375s-26.484375-11.855469-26.484375-26.484375c0-14.625 11.859375-26.480469 26.484375-26.480469s26.484375 11.855469 26.484375 26.480469zm0 0" fill="#2c3e50"/><path d="m255.03125 493.214844c-24.394531 1.015625-48.757812-2.691406-71.742188-10.921875-4.492187-1.851563-6.644531-6.992188-4.808593-11.492188 1.835937-4.5 6.964843-6.671875 11.472656-4.855469 20.894531 7.277344 42.972656 10.539063 65.078125 9.613282 22.324219.960937 44.628906-2.390625 65.683594-9.867188 4.5-1.878906 9.671875.246094 11.546875 4.746094 1.878906 4.5-.246094 9.671875-4.746094 11.546875-23.191406 8.472656-47.820313 12.289063-72.484375 11.230469zm0 0" fill="#d1d4d1"/><path d="m189.972656 293.445312c-1.238281 1.992188-3.21875 3.410157-5.507812 3.941407-2.285156.53125-4.6875.128906-6.675782-1.117188-15.183593-9.769531-31.761718-17.179687-49.167968-21.980469-14.65625-3.441406-19.773438-.882812-20.128906-.265624-2.382813 3.886718 11.300781 27.808593 50.671874 52.261718 1.992188 1.238282 3.410157 3.21875 3.941407 5.503906.527343 2.285157.128906 4.6875-1.117188 6.675782-1.632812 2.570312-4.460937 4.132812-7.503906 4.152344-1.648437-.015626-3.265625-.472657-4.679687-1.324219-3.089844-1.945313-6.179688-3.972657-9.269532-6.09375-24.007812-16.417969-44.84375-36.988281-48.992187-54.289063-1.65625-5.445312-.953125-11.339844 1.941406-16.242187 3.621094-5.828125 11.832031-11.652344 30.367187-9.179688 2.972657.382813 5.921876.945313 8.828126 1.675781 7.9375 1.996094 15.699218 4.621094 23.21875 7.855469 10.832031 4.605469 21.28125 10.066407 31.246093 16.332031 4.097657 2.574219 5.359375 7.96875 2.828125 12.09375zm0 0" fill="#a5a5a4"/><path d="m418.515625 280.910156c-4.148437 17.300782-24.980469 37.871094-48.992187 54.289063-3.089844 2.121093-6.179688 4.148437-9.269532 6.09375-1.410156.851562-3.027344 1.308593-4.675781 1.324219-3.046875-.019532-5.871094-1.582032-7.503906-4.152344-1.246094-1.988282-1.648438-4.390625-1.117188-6.675782.53125-2.285156 1.949219-4.265624 3.941407-5.503906 39.371093-24.453125 53.054687-48.375 50.671874-52.261718-.355468-.617188-5.476562-3.175782-20.128906.265624-17.40625 4.800782-33.984375 12.210938-49.167968 21.980469-2.667969 1.953125-6.203126 2.25-9.15625.773438-2.957032-1.476563-4.839844-4.480469-4.882813-7.785157-.042969-3.304687 1.761719-6.355468 4.679687-7.90625 9.96875-6.265624 20.417969-11.726562 31.25-16.332031 7.515626-3.234375 15.28125-5.859375 23.21875-7.855469 2.90625-.730468 5.851563-1.292968 8.824219-1.675781 18.539063-2.472656 26.75 3.351563 30.367188 9.179688 2.898437 4.902343 3.601562 10.796875 1.941406 16.242187zm0 0" fill="#a5a5a4"/><path d="m175.582031 131.28125c0 4.878906-3.953125 8.828125-8.828125 8.828125s-8.828125-3.949219-8.828125-8.828125c0-4.875 3.953125-8.824219 8.828125-8.824219s8.828125 3.949219 8.828125 8.824219zm0 0" fill="#ecf0f1"/><path d="m184.410156 144.523438c0 7.3125-5.929687 13.242187-13.242187 13.242187s-13.242188-5.929687-13.242188-13.242187 5.929688-13.242188 13.242188-13.242188 13.242187 5.929688 13.242187 13.242188zm0 0" fill="#ecf0f1"/><path d="m360.960938 140.109375c0 14.628906-11.855469 26.484375-26.480469 26.484375-14.628907 0-26.484375-11.855469-26.484375-26.484375 0-14.625 11.855468-26.480469 26.484375-26.480469 14.625 0 26.480469 11.855469 26.480469 26.480469zm0 0" fill="#2c3e50"/><path d="m334.480469 131.28125c0 4.878906-3.953125 8.828125-8.828125 8.828125s-8.828125-3.949219-8.828125-8.828125c0-4.875 3.953125-8.824219 8.828125-8.824219s8.828125 3.949219 8.828125 8.824219zm0 0" fill="#ecf0f1"/><path d="m343.304688 144.523438c0 7.3125-5.925782 13.242187-13.238282 13.242187s-13.242187-5.929687-13.242187-13.242187 5.929687-13.242188 13.242187-13.242188 13.238282 5.929688 13.238282 13.242188zm0 0" fill="#ecf0f1"/><path d="m193.238281 174.441406c-2.34375 0-4.585937-.929687-6.242187-2.585937-2.898438-3.289063-7.070313-5.167969-11.453125-5.160157-4.382813.003907-8.550781 1.898438-11.4375 5.195313-3.476563 3.332031-8.984375 3.261719-12.375-.15625-3.394531-3.421875-3.417969-8.929687-.054688-12.378906 6.207031-6.582031 14.851563-10.3125 23.898438-10.3125 9.042969 0 17.6875 3.730469 23.894531 10.3125 2.535156 2.519531 3.300781 6.324219 1.933594 9.628906-1.363282 3.304687-4.589844 5.460937-8.164063 5.457031zm0 0" fill="#bdc3c7"/><path d="m352.132812 174.441406c-2.339843 0-4.585937-.929687-6.238281-2.585937-2.898437-3.289063-7.074219-5.167969-11.453125-5.160157-4.382812.003907-8.550781 1.898438-11.4375 5.195313-3.476562 3.332031-8.988281 3.261719-12.378906-.15625-3.390625-3.421875-3.414062-8.929687-.050781-12.378906 6.207031-6.582031 14.851562-10.3125 23.894531-10.3125 9.046875 0 17.691406 3.730469 23.898438 10.3125 2.535156 2.519531 3.296874 6.324219 1.933593 9.628906-1.367187 3.304687-4.589843 5.460937-8.167969 5.457031zm0 0" fill="#bdc3c7"/><path d="m237.375 184.25v26.480469c0 9.75 7.90625 17.65625 17.65625 17.65625s17.65625-7.90625 17.65625-17.65625v-26.480469zm0 0" fill="#ff5364"/><g fill="#802d40"><path d="m237.375 193.074219c-14.625 0-26.480469-11.855469-26.480469-26.480469 0-4.875 3.949219-8.828125 8.824219-8.828125s8.828125 3.953125 8.828125 8.828125 3.953125 8.828125 8.828125 8.828125 8.828125-3.953125 8.828125-8.828125 3.953125-8.828125 8.828125-8.828125 8.828125 3.953125 8.828125 8.828125c0 14.625-11.859375 26.480469-26.484375 26.480469zm0 0"/><path d="m272.6875 193.074219c-14.628906 0-26.484375-11.855469-26.484375-26.480469 0-4.875 3.953125-8.828125 8.828125-8.828125s8.828125 3.953125 8.828125 8.828125 3.949219 8.828125 8.828125 8.828125c4.875 0 8.824219-3.953125 8.824219-8.828125s3.953125-8.828125 8.828125-8.828125 8.828125 3.953125 8.828125 8.828125c0 14.625-11.855469 26.480469-26.480469 26.480469zm0 0"/></g></svg>