<svg height="512pt" viewBox="-48 0 512 512.12627" width="512pt" xmlns="http://www.w3.org/2000/svg"><path d="m416.605469 409.199219c-11.851563-4.972657-24.964844-6.09375-37.488281-3.210938h-.085938c-.269531-.230469-.558594-.433593-.867188-.605469-6.738281-4.042968-14.449218-6.171874-22.304687-6.164062-1.917969-.03125-3.835937.113281-5.726563.433594 9.496094-20.871094 14.40625-43.539063 14.40625-66.472656 0-2.863282-.089843-5.726563-.261718-8.503907v-.085937c-1.824219-33.289063-13.886719-65.203125-34.539063-91.378906.085938-1.042969.085938-2.167969.085938-3.210938-1.039063-51.109375-31.203125-97.128906-77.65625-118.472656h.078125l5.03125-7.113282 30.632812-43.042968c8.667969-12.140625 9.609375-28.171875 2.429688-41.246094-7.183594-13.070312-21.21875-20.871094-36.113282-20.0664062-14.894531.8007812-28.011718 10.0703122-33.742187 23.8398442l-26.554687 63.347656-3.558594 8.417968.9375.242188c-2.996094-.164062-5.972656-.414062-9.007813-.414062-3.039062 0-6.015625.25-9.007812.414062l.9375-.242188-3.558594-8.417968-26.554687-63.347656c-5.746094-13.753907-18.859376-23.003907-33.746094-23.8007818-14.882813-.7968752-28.910156 7.0039058-36.089844 20.0664058s-6.242188 29.082032 2.410156 41.222657l30.632813 43.042969 5.03125 7.117187h.078125c-46.449219 21.339844-76.613282 67.347656-77.660156 118.453125 0 1.042969 0 2.167969.089843 3.210938-20.707031 26.277343-32.773437 58.316406-34.539062 91.726562-.175781 2.6875-.261719 5.464844-.261719 8.242188.152344 38.8125 14.175781 76.292968 39.539062 105.671874-18.546874 6.605469-30.859374 19.265626-30.859374 34.132813 0 39.050781 32.273437 39.050781 60.746093 39.050781 19.105469.945313 37.804688-5.753906 51.960938-18.625 39.539062 13.214844 82.289062 13.261719 121.855469.140625 14.128906 12.800781 32.769531 19.449219 51.808593 18.484375 24.90625 0 52.761719 0 59.269531-26.121094.488282.074219.984376.101563 1.476563.085938 23.964844 0 43.390625-19.425781 43.390625-43.390625-.011719-2.503906-.246094-5-.695312-7.460937 5.160156-9.214844 11.207031-17.90625 18.050781-25.949219zm0 0" fill="#ecf0f1"/><path d="m287.910156 61.386719-30.632812 43.042969c-4.164063-2.082032-8.417969-3.992188-12.757813-5.726563-10.949219-4.417969-22.359375-7.589844-34.015625-9.460937-5.476562-1.019532-11.011718-1.6875-16.574218-1.996094l26.554687-63.347656c5.746094-13.753907 18.859375-23.003907 33.742187-23.8007818 14.886719-.7968752 28.914063 7.0039058 36.09375 20.0664058 7.179688 13.0625 6.242188 29.082032-2.410156 41.222657zm0 0" fill="#bdc3c7"/><path d="m170.671875 87.246094c-5.5625.308594-11.097656.976562-16.574219 1.996094-11.6875 1.871093-23.125 5.042968-34.105468 9.460937-4.339844 1.734375-8.589844 3.644531-12.667969 5.726563l-30.632813-43.042969c-8.652344-12.140625-9.589844-28.160157-2.410156-41.222657s21.207031-20.863281 36.089844-20.0664058c14.886718.7968748 28 10.0468748 33.746094 23.8007818zm0 0" fill="#bdc3c7"/><path d="m154.097656 89.242188c-11.6875 1.871093-23.125 5.042968-34.105468 9.460937l-29.15625-47.382813c-3.550782-4.976562-4.8125-11.226562-3.46875-17.191406 1.339843-5.960937 5.160156-11.070312 10.496093-14.050781 3.148438-1.785156 6.707031-2.714844 10.328125-2.6875 8.714844.011719 16.578125 5.242187 19.957032 13.277344zm0 0" fill="#ff5364"/><path d="m273.765625 51.320312-29.246094 47.382813c-10.949219-4.417969-22.359375-7.589844-34.015625-9.460937l25.945313-58.574219c3.355469-8.058594 11.234375-13.296875 19.960937-13.277344 3.59375-.035156 7.128906.890625 10.238282 2.6875 5.394531 2.9375 9.257812 8.0625 10.589843 14.058594 1.320313 5.960937.058594 12.203125-3.472656 17.183593zm0 0" fill="#ff5364"/><path d="m164.945312 113.628906-30.894531 7.894532-8.242187-13.449219-5.816406-9.371094c10.980468-4.417969 22.417968-7.589844 34.105468-9.460937l4.683594 10.414062zm0 0" fill="#df4d60"/><path d="m174.230469 95.664062-15.449219 3.992188-4.683594-10.414062c5.476563-1.019532 11.011719-1.6875 16.574219-1.996094zm0 0" fill="#95a5a5"/><path d="m125.808594 108.074219-13.453125 3.472656-5.03125-7.117187c4.078125-2.082032 8.328125-3.992188 12.667969-5.726563zm0 0" fill="#95a5a5"/><path d="m244.519531 98.703125-5.726562 9.371094-8.328125 13.449219-30.808594-7.894532 6.160156-13.972656 4.6875-10.414062c11.65625 1.871093 23.066406 5.042968 34.015625 9.460937zm0 0" fill="#df4d60"/><path d="m210.503906 89.242188-4.6875 10.414062-15.445312-3.992188 3.558594-8.417968c5.5625.308594 11.097656.976562 16.574218 1.996094zm0 0" fill="#95a5a5"/><path d="m257.277344 104.429688-5.03125 7.117187-13.453125-3.472656 5.726562-9.371094c4.339844 1.734375 8.59375 3.644531 12.757813 5.726563zm0 0" fill="#95a5a5"/><path d="m364.539062 333.179688c0 22.933593-4.910156 45.601562-14.40625 66.472656-6.484374 14.191406-14.894531 27.421875-24.992187 39.3125-2.082031 2.429687-4.167969 4.773437-6.335937 7.03125l-9.71875 6.507812-49.117188 32.800782-7.464844 4.949218h-.085937c-3.035157 1.214844-6.074219 2.339844-9.113281 3.296875-42.796876 14.125-89.171876 12.957031-131.210938-3.296875l-66.296875-44.257812c-29.199219-30.316406-45.578125-70.726563-45.734375-112.816406 0-2.777344.085938-5.554688.261719-8.242188 1.765625-33.410156 13.832031-65.449219 34.539062-91.726562-.089843-1.042969-.089843-2.167969-.089843-3.210938 0-74.285156 66.039062-134.507812 147.527343-134.507812 81.484375 0 147.523438 60.222656 147.523438 134.507812 0 1.042969 0 2.167969-.085938 3.210938 20.652344 26.175781 32.714844 58.089843 34.539063 91.378906v.085937c.171875 2.777344.261718 5.640625.261718 8.503907zm0 0" fill="#bdc3c7"/><path d="m364.277344 324.589844v.085937c-1.121094 19.917969-5.914063 39.453125-14.144532 57.621094-6.484374 14.191406-14.894531 27.421875-24.992187 39.3125-2.082031 2.429687-4.167969 4.773437-6.335937 7.027344l-9.71875 6.511719-49.117188 32.800781-7.464844 4.945312h-.085937c-3.035157 1.214844-6.074219 2.34375-9.113281 3.300781-42.796876 14.125-89.171876 12.957032-131.210938-3.300781l-66.296875-44.257812c-26.988281-28.070313-43.105469-64.832031-45.472656-103.699219 1.765625-33.410156 13.832031-65.449219 34.539062-91.726562-.089843-1.042969-.089843-2.167969-.089843-3.210938 0-74.285156 66.039062-134.507812 147.527343-134.507812 81.484375 0 147.523438 60.222656 147.523438 134.507812 0 1.042969 0 2.167969-.085938 3.210938 20.652344 26.175781 32.714844 58.089843 34.539063 91.378906zm0 0" fill="#e6e7e8"/><path d="m398.554688 435.148438c.449218 2.460937.683593 4.957031.695312 7.460937 0 23.964844-19.425781 43.390625-43.390625 43.390625-.492187.015625-.988281-.011719-1.476563-.085938 1.023438-4.234374 1.519532-8.578124 1.476563-12.929687 0-14.839844-12.234375-27.511719-30.71875-34.019531 10.097656-11.890625 18.507813-25.121094 24.992187-39.3125 1.890626-.320313 3.808594-.464844 5.726563-.433594 7.855469-.007812 15.566406 2.121094 22.304687 6.164062.308594.171876.597657.375.867188.605469h.085938c12.523437-2.882812 25.636718-1.761719 37.488281 3.210938-6.84375 8.042969-12.890625 16.734375-18.050781 25.949219zm0 0" fill="#e6e7e8"/><path d="m121.554688 472.984375c0 16.773437-23.308594 30.371094-52.066407 30.371094-28.761719 0-52.070312 0-52.070312-30.371094 0-16.777344 23.308593-30.375 52.070312-30.375" fill="#e6e7e8"/><path d="m243.046875 472.984375c0 16.773437 23.308594 30.371094 52.066406 30.371094 28.757813 0 52.070313 0 52.070313-30.371094 0-16.777344-23.3125-30.375-52.070313-30.375zm0 0" fill="#e6e7e8"/><g fill="#bdc3c7"><path d="m69.488281 512.035156c-28.472656 0-60.746093 0-60.746093-39.050781 0-21.894531 26.683593-39.050781 60.746093-39.050781 4.792969 0 8.675781 3.882812 8.675781 8.675781s-3.882812 8.679687-8.675781 8.679687c-25.574219 0-43.390625 11.429688-43.390625 21.695313 0 20.011719 10.605469 21.695313 43.390625 21.695313 25.574219 0 43.386719-11.429688 43.386719-21.695313 0-4.792969 3.886719-8.679687 8.679688-8.679687 4.792968 0 8.679687 3.886718 8.679687 8.679687 0 21.894531-26.6875 39.050781-60.746094 39.050781zm0 0"/><path d="m355.859375 472.984375c.042969 4.351563-.453125 8.695313-1.476563 12.929687-6.507812 26.121094-34.363281 26.121094-59.269531 26.121094-19.039062.964844-37.679687-5.683594-51.808593-18.484375-5.585938-5.398437-8.800782-12.796875-8.9375-20.566406 0-4.792969 3.886718-8.679687 8.679687-8.679687 3.089844-.011719 5.941406 1.648437 7.460937 4.339843.792969 1.308594 1.214844 2.808594 1.214844 4.339844.632813 5.183594 3.695313 9.757813 8.246094 12.320313 10.523438 6.546874 22.757812 9.808593 35.144531 9.375 32.804688 0 43.390625-1.652344 43.390625-21.695313 0-8.246094-11.542968-17.269531-29.417968-20.480469-4.613282-.820312-9.289063-1.226562-13.972657-1.214844-3.089843.007813-5.941406-1.648437-7.460937-4.339843-.792969-1.308594-1.214844-2.808594-1.214844-4.339844 0-4.792969 3.882812-8.675781 8.675781-8.675781 10.226563-.085938 20.386719 1.617187 30.027344 5.03125 18.484375 6.507812 30.71875 19.179687 30.71875 34.019531zm0 0"/><path d="m121.554688 416.574219c-16.785157 0-34.710938-10.265625-34.710938-39.050781-.0625-8.671876 1.6875-17.265626 5.136719-25.226563 2.03125-4.234375 7.066406-6.082031 11.355469-4.171875 4.292968 1.914062 6.28125 6.894531 4.488281 11.238281-2.453125 5.738281-3.6875 11.921875-3.625 18.160157 0 14.398437 5.839843 21.695312 17.355469 21.695312 11.515624 0 17.355468-7.296875 17.355468-21.695312.0625-6.238282-1.171875-12.421876-3.628906-18.160157-1.363281-2.847656-1.074219-6.214843.757812-8.785156 1.828126-2.574219 4.914063-3.949219 8.050782-3.589844 3.140625.355469 5.835937 2.390625 7.039062 5.308594 3.449219 7.960937 5.199219 16.554687 5.136719 25.226563 0 28.785156-17.929687 39.050781-34.710937 39.050781zm0 0"/><path d="m243.046875 416.574219c-16.785156 0-34.710937-10.265625-34.710937-39.050781-.0625-8.671876 1.6875-17.265626 5.136718-25.226563 2.03125-4.234375 7.066406-6.082031 11.355469-4.171875 4.292969 1.914062 6.28125 6.894531 4.488281 11.238281-2.453125 5.738281-3.6875 11.921875-3.625 18.160157 0 14.398437 5.839844 21.695312 17.355469 21.695312s17.355469-7.296875 17.355469-21.695312c.0625-6.238282-1.175782-12.421876-3.628906-18.160157-1.789063-4.34375.199218-9.324219 4.488281-11.238281 4.292969-1.910156 9.328125-.0625 11.359375 4.171875 3.449218 7.960937 5.199218 16.554687 5.136718 25.226563 0 28.785156-17.929687 39.050781-34.710937 39.050781zm0 0"/></g><path d="m130.234375 190.949219c-14.378906 0-26.035156-11.65625-26.035156-26.035157 0-14.378906 11.65625-26.03125 26.035156-26.03125 14.375 0 26.03125 11.652344 26.03125 26.03125 0 14.378907-11.65625 26.035157-26.03125 26.035157zm0 0" fill="#2c3e50"/><path d="m234.367188 190.949219c-14.378907 0-26.03125-11.65625-26.03125-26.035157 0-14.378906 11.652343-26.03125 26.03125-26.03125 14.378906 0 26.035156 11.652344 26.035156 26.03125 0 14.378907-11.65625 26.035157-26.035156 26.035157zm0 0" fill="#2c3e50"/><path d="m182.300781 225.660156c-4.792969 0-8.679687-3.882812-8.679687-8.675781v-26.035156c0-4.792969 3.886718-8.679688 8.679687-8.679688s8.675781 3.886719 8.675781 8.679688v26.035156c0 4.792969-3.882812 8.675781-8.675781 8.675781zm0 0" fill="#bdc3c7"/><path d="m215.867188 216.984375c2.695312-.019531 5.242187 1.21875 6.898437 3.34375 1.65625 2.128906 2.230469 4.902344 1.554687 7.511719-4.9375 19.167968-22.222656 32.566406-42.019531 32.566406s-37.082031-13.398438-42.019531-32.566406c-.652344-2.605469-.070312-5.371094 1.578125-7.488282 1.652344-2.121093 4.1875-3.363281 6.875-3.367187zm0 0" fill="#802d40"/><path d="m190.976562 199.625h-17.355468c-4.792969 0-8.675782-3.882812-8.675782-8.675781s3.882813-8.679688 8.675782-8.679688h17.355468c4.792969 0 8.679688 3.886719 8.679688 8.679688s-3.886719 8.675781-8.679688 8.675781zm0 0" fill="#ff5364"/><path d="m130.234375 156.238281c0 4.792969-3.886719 8.675781-8.679687 8.675781-4.792969 0-8.679688-3.882812-8.679688-8.675781s3.886719-8.679687 8.679688-8.679687c4.792968 0 8.679687 3.886718 8.679687 8.679687zm0 0" fill="#ecf0f1"/><path d="m234.367188 156.238281c0 4.792969-3.882813 8.675781-8.675782 8.675781-4.792968 0-8.679687-3.882812-8.679687-8.675781s3.886719-8.679687 8.679687-8.679687c4.792969 0 8.675782 3.886718 8.675782 8.679687zm0 0" fill="#ecf0f1"/></svg>