<svg id="Layer_3" enable-background="new 0 0 64 64" height="512" viewBox="0 0 64 64" width="512" xmlns="http://www.w3.org/2000/svg"><circle cx="32" cy="18" fill="#c16b3f" r="8"/><path d="m24 18c0 .694.098 1.363.263 2.005 1.266 1.809 3.362 2.995 5.737 2.995 3.866 0 7-3.134 7-7 0-2.376-1.186-4.471-2.995-5.737-.642-.165-1.311-.263-2.005-.263-4.418 0-8 3.582-8 8z" fill="#e39854"/><path d="m55 62c3.866 0 7-3.134 7-7s-3.134-7-7-7c-.36 0-.71.036-1.056.088-.453-3.988-3.835-7.088-7.944-7.088-1.012 0-1.976.195-2.866.538-1.772-4.416-6.085-7.538-11.134-7.538s-9.362 3.122-11.134 7.538c-.89-.343-1.854-.538-2.866-.538-4.109 0-7.491 3.1-7.944 7.088-.346-.052-.696-.088-1.056-.088-3.866 0-7 3.134-7 7s3.134 7 7 7z" fill="#a1cdfb"/><path d="m21.5 58c14.485 0 26.523-6.726 29.018-15.592-1.286-.884-2.839-1.408-4.518-1.408-1.012 0-1.976.195-2.866.538-1.772-4.416-6.085-7.538-11.134-7.538s-9.362 3.122-11.134 7.538c-.89-.343-1.854-.538-2.866-.538-4.109 0-7.491 3.1-7.944 7.088-.346-.052-.696-.088-1.056-.088-3.301 0-6.062 2.288-6.8 5.363 5.174 2.886 11.918 4.637 19.3 4.637z" fill="#c7e2fc"/><g fill="#e39854"><path d="m31 1h2v6h-2z"/><path d="m31 29h2v5h-2z"/><path d="m15 17h6v2h-6z"/><path d="m43 17h6v2h-6z"/><path d="m20.5 3.964h2v7.071h-2z" transform="matrix(.707 -.707 .707 .707 .994 17.4)"/><path d="m41.5 24.964h2v7.071h-2z" transform="matrix(.707 -.707 .707 .707 -7.705 38.4)"/><path d="m38.964 6.5h7.071v2h-7.071z" transform="matrix(.707 -.707 .707 .707 7.145 32.249)"/><path d="m17.964 27.5h7.071v2h-7.071z" transform="matrix(.707 -.707 .707 .707 -13.855 23.55)"/></g></svg>