<svg id="Layer_1" enable-background="new 0 0 496 496" height="512" viewBox="0 0 496 496" width="512" xmlns="http://www.w3.org/2000/svg"><path d="m328.02 64c-33.856 0-64.758 16.245-84.1 42.79-46.024-13.232-91.92 21.386-91.92 69.209-28.21 0-51.55 20.86-55.43 48h-40.57c-30.93 0-56-25.07-56-56s25.07-56 56-56c0-47.91 45.994-82.413 91.92-69.21 47.794-65.594 148.96-53.522 180.1 21.211z" fill="#5989b3"/><path d="m424 288h-272c-30.93 0-56-25.07-56-56s25.07-56 56-56c0-47.91 45.994-82.413 91.92-69.21 52.411-71.932 165.158-48.807 185.34 37.4 37.311 2.69 66.74 33.82 66.74 71.81 0 39.759-32.24 72-72 72z" fill="#add9ff"/><path d="m409.1 102.89c-46.079-37.029-114.104-28.239-149.18 19.9-46.024-13.231-91.92 21.386-91.92 69.21-45.061 0-70.917 50.224-46.78 86.78-15.2-10.01-25.22-27.22-25.22-46.781 0-30.93 25.07-56 56-56 0-47.91 45.994-82.413 91.92-69.21 40.366-55.401 122.233-57.325 165.18-3.899z" fill="#d6ecff"/><path d="m313.1 38.89c-46.079-37.029-114.105-28.24-149.18 19.9-46.024-13.232-91.92 21.386-91.92 69.21-45.061 0-70.917 50.224-46.78 86.78-15.2-10.01-25.22-27.22-25.22-46.781 0-30.93 25.07-56 56-56 0-47.91 45.994-82.413 91.92-69.21 40.366-55.401 122.233-57.325 165.18-3.899z" fill="#436786"/><path d="m288 239.999-112 144.001h64l-48 112 128-144h-64z" fill="#ffdf81"/><circle cx="136" cy="255.999" fill="#d6ecff" r="8"/><circle cx="124" cy="243.999" fill="#d6ecff" r="4"/><g fill="#436786"><circle cx="40" cy="191.999" r="8"/><circle cx="28" cy="179.999" r="4"/></g></svg>